<?xml version="1.0" encoding="UTF-8" standalone="no"?>
<!-- Created with Inkscape (http://www.inkscape.org/) -->

<svg
   xmlns:dc="http://purl.org/dc/elements/1.1/"
   xmlns:cc="http://creativecommons.org/ns#"
   xmlns:rdf="http://www.w3.org/1999/02/22-rdf-syntax-ns#"
   xmlns:svg="http://www.w3.org/2000/svg"
   xmlns="http://www.w3.org/2000/svg"
   xmlns:sodipodi="http://sodipodi.sourceforge.net/DTD/sodipodi-0.dtd"
   xmlns:inkscape="http://www.inkscape.org/namespaces/inkscape"
   width="35.232681mm"
   height="6.7836423mm"
   viewBox="0 0 35.232681 6.7836424"
   version="1.1"
   id="svg1712"
   inkscape:version="0.92.3 (2405546, 2018-03-11)"
   sodipodi:docname="nazifalogo_navbar.svg">
  <defs
     id="defs1706" />
  <sodipodi:namedview
     id="base"
     pagecolor="#ffffff"
     bordercolor="#666666"
     borderopacity="1.0"
     inkscape:pageopacity="0.0"
     inkscape:pageshadow="2"
     inkscape:zoom="5.6"
     inkscape:cx="36.739756"
     inkscape:cy="5.015463"
     inkscape:document-units="mm"
     inkscape:current-layer="layer1"
     showgrid="false"
     inkscape:window-width="1920"
     inkscape:window-height="980"
     inkscape:window-x="0"
     inkscape:window-y="27"
     inkscape:window-maximized="1" />
  <metadata
     id="metadata1709">
    <rdf:RDF>
      <cc:Work
         rdf:about="">
        <dc:format>image/svg+xml</dc:format>
        <dc:type
           rdf:resource="http://purl.org/dc/dcmitype/StillImage" />
        <dc:title />
      </cc:Work>
    </rdf:RDF>
  </metadata>
  <g
     inkscape:label="Layer 1"
     inkscape:groupmode="layer"
     id="layer1"
     transform="translate(178.23481,-179.94219)">
    <path
       inkscape:connector-curvature="0"
       id="path823"
       style="font-style:normal;font-variant:normal;font-weight:normal;font-stretch:normal;font-size:medium;line-height:1.25;font-family:'Megan Personal Use';-inkscape-font-specification:'Megan Personal Use';letter-spacing:0px;word-spacing:0px;fill:#ffffff;fill-opacity:1;stroke:none;stroke-width:0.12420749"
       d="m -176.19936,180.35954 q -0.0149,0.0298 -0.0199,0.16395 -0.005,0.12918 -0.005,0.33288 0.005,0.19873 0.0149,0.45708 0.01,0.25339 0.0298,0.53161 0.0199,0.27823 0.0497,0.57136 0.0348,0.28816 0.0795,0.55148 0.0447,-0.35772 0.0745,-0.7204 0.0348,-0.36766 0.0944,-0.72538 0.0596,-0.35771 0.15899,-0.70549 0.10433,-0.34779 0.28816,-0.6757 0.0497,-0.0894 0.16892,-0.1242 0.12421,-0.0348 0.24345,-0.0149 0.11924,0.0149 0.19376,0.0944 0.0795,0.0745 0.0398,0.20866 -0.24841,0.42728 -0.4074,0.90424 -0.15401,0.47199 -0.26332,0.96385 -0.1093,0.49186 -0.18879,0.99366 -0.0795,0.49683 -0.17389,0.97875 -0.0398,0.19377 -0.11924,0.32294 -0.0795,0.12421 -0.17886,0.15402 -0.0994,0.0248 -0.21363,-0.0596 -0.11428,-0.0894 -0.21861,-0.32294 -0.0845,-0.19377 -0.15402,-0.45212 -0.0696,-0.26332 -0.12421,-0.56142 -0.0547,-0.29809 -0.0944,-0.62103 -0.0398,-0.32294 -0.0696,-0.63594 -0.0348,0.3279 -0.0696,0.66078 -0.0298,0.33288 -0.0894,0.65581 -0.0596,0.32295 -0.15899,0.63595 -0.0994,0.313 -0.26332,0.60613 -0.0447,0.0894 -0.16892,0.12421 -0.11924,0.0348 -0.23848,0.0149 -0.11924,-0.0199 -0.19873,-0.0944 -0.0795,-0.0795 -0.0398,-0.21364 0.18879,-0.32294 0.30803,-0.67569 0.11924,-0.35275 0.19873,-0.71543 0.0845,-0.36766 0.14409,-0.74028 0.0596,-0.37262 0.1242,-0.73531 0.0696,-0.36268 0.15899,-0.71047 0.0894,-0.35274 0.23351,-0.67072 h 0.005 q 0.0547,-0.0894 0.2037,-0.1093 0.15402,-0.0248 0.30803,0.01 0.15402,0.0348 0.26333,0.1242 0.1093,0.0894 0.0745,0.22357 z" />
    <path
       inkscape:connector-curvature="0"
       id="path825"
       style="font-style:normal;font-variant:normal;font-weight:normal;font-stretch:normal;font-size:medium;line-height:1.25;font-family:'Megan Personal Use';-inkscape-font-specification:'Megan Personal Use';letter-spacing:0px;word-spacing:0px;fill:#ffffff;fill-opacity:1;stroke:none;stroke-width:0.12420749"
       d="m -172.97059,183.47466 q -0.0696,0.18383 -0.14905,0.38753 -0.0795,0.2037 -0.18382,0.37262 -0.10434,0.16893 -0.24842,0.2832 -0.14408,0.1093 -0.34778,0.1093 -0.14905,-0.005 -0.23848,-0.0845 -0.0845,-0.0845 -0.12421,-0.22854 -0.10433,0.15898 -0.26332,0.24345 -0.15402,0.0845 -0.30803,0.0646 -0.15402,-0.0248 -0.2832,-0.17886 -0.12917,-0.15401 -0.17885,-0.47695 -0.0447,-0.2832 -0.005,-0.62104 0.0348,-0.33784 0.13911,-0.65085 0.0994,-0.31797 0.25835,-0.57632 0.15899,-0.25835 0.36269,-0.38256 0.0795,-0.0547 0.19376,-0.0646 0.11924,-0.01 0.23351,0.0298 0.11427,0.0348 0.20867,0.12421 0.0994,0.0845 0.14905,0.2186 0.0795,0.0497 0.16395,0.11924 0.0894,0.0646 0.15402,0.12918 0.0696,0.0646 0.0994,0.11924 0.0348,0.0547 0.005,0.0795 -0.0696,0.0547 -0.1093,0.13415 -0.0348,0.0745 -0.0646,0.18382 -0.0298,0.10931 -0.0547,0.25338 -0.0248,0.14409 -0.0646,0.32791 -0.0447,0.22855 -0.0398,0.34779 0.005,0.11924 0.0447,0.14407 0.0398,0.0199 0.10433,-0.0447 0.0646,-0.0695 0.13912,-0.2186 l 0.15401,-0.34281 q 0.0398,-0.0745 0.0944,-0.0795 0.0546,-0.01 0.0944,0.0248 0.0447,0.0298 0.0646,0.0994 0.0248,0.0696 0,0.15402 z m -1.80846,0.26333 q 0.0149,0.22854 0.0795,0.27822 0.0696,0.0497 0.15402,-0.0149 0.0845,-0.0646 0.16395,-0.20867 0.0795,-0.14408 0.11924,-0.30306 0.0348,-0.24842 0.0894,-0.49683 0.0547,-0.24842 0.0944,-0.48193 -0.01,-0.0199 -0.01,-0.0447 -0.0199,-0.20867 -0.0795,-0.24841 -0.0596,-0.0398 -0.14408,0.0447 -0.0795,0.0795 -0.16893,0.25338 -0.0845,0.17389 -0.15898,0.38753 -0.0696,0.20867 -0.11427,0.43224 -0.0398,0.22358 -0.0248,0.40244 z" />
    <path
       inkscape:connector-curvature="0"
       id="path827"
       style="font-style:normal;font-variant:normal;font-weight:normal;font-stretch:normal;font-size:medium;line-height:1.25;font-family:'Megan Personal Use';-inkscape-font-specification:'Megan Personal Use';letter-spacing:0px;word-spacing:0px;fill:#ffffff;fill-opacity:1;stroke:none;stroke-width:0.12420749"
       d="m -171.90163,181.73576 q 0.0894,-0.0447 0.16395,-0.0248 0.0745,0.0149 0.12918,0.0745 0.0596,0.0596 0.0994,0.15898 0.0398,0.0994 0.0695,0.21861 0.0497,0.23351 0.005,0.50676 -0.0447,0.26829 -0.15898,0.53658 -0.10931,0.26332 -0.27326,0.50677 -0.16396,0.24344 -0.34778,0.42727 l -0.0398,0.0398 q 0.14904,0.0795 0.24841,0.22357 0.24345,-0.19873 0.43224,-0.44218 0.1888,-0.24841 0.35275,-0.6111 0.0497,-0.1093 0.11427,-0.13911 0.0646,-0.0348 0.11428,-0.005 0.0497,0.0248 0.0696,0.10433 0.0199,0.0745 -0.0149,0.17886 -0.0745,0.20867 -0.14408,0.37759 -0.0696,0.16893 -0.16892,0.32791 -0.0944,0.15402 -0.23351,0.30804 -0.13414,0.15401 -0.34281,0.3279 0.0547,0.28816 0,0.61111 -0.0497,0.32294 -0.18383,0.60116 -0.13414,0.28319 -0.33288,0.47199 -0.19873,0.1888 -0.43224,0.20867 -0.18383,0.0149 -0.34281,-0.0894 -0.16396,-0.10434 -0.26829,-0.27823 -0.10433,-0.17389 -0.12917,-0.39746 -0.0298,-0.22357 0.0546,-0.44715 0.0497,-0.14408 0.15898,-0.25835 0.10434,-0.11427 0.23848,-0.21364 0.13414,-0.0944 0.28816,-0.17886 0.15899,-0.0795 0.30804,-0.16395 -0.0348,-0.0894 -0.0845,-0.13414 -0.0497,-0.0447 -0.11426,-0.0596 -0.0596,-0.0149 -0.12918,-0.01 -0.0646,0 -0.13415,0 -0.0596,-0.01 -0.0894,-0.0944 -0.0298,-0.0894 -0.0298,-0.19377 0,-0.1093 0.0298,-0.2037 0.0248,-0.0944 0.0795,-0.1242 0.0447,-0.0199 0.0845,-0.0348 0.0398,-0.0199 0.0745,-0.0398 0.0398,-0.0248 0.0845,-0.0547 0.0447,-0.0348 0.10433,-0.0944 0.15898,-0.15402 0.28319,-0.37262 0.12918,-0.21861 0.20867,-0.39747 0.0398,-0.0944 0.0646,-0.16892 0.0298,-0.0745 0.0348,-0.11924 0.01,-0.0447 -0.01,-0.0546 -0.0199,-0.01 -0.0696,0.0248 -0.13414,0.0894 -0.28816,0.1093 -0.15402,0.0149 -0.30803,-0.0398 -0.0845,0.2981 -0.1888,0.57632 -0.10433,0.27326 -0.19376,0.50677 -0.0298,0.0696 -0.0845,0.0745 -0.0546,0 -0.0994,-0.0348 -0.0497,-0.0398 -0.0745,-0.10434 -0.0298,-0.0696 -0.01,-0.14408 0.11427,-0.24344 0.2186,-0.49186 0.10434,-0.25338 0.1888,-0.52167 -0.0845,-0.0994 -0.0845,-0.23848 0,-0.14408 0.0497,-0.27822 0.0497,-0.13912 0.12421,-0.24345 0.0795,-0.10434 0.14905,-0.13415 0.0695,-0.0298 0.11427,0.0447 0.0447,0.0745 0.0248,0.2981 l -0.005,0.0248 q 0.0745,0.005 0.15899,-0.0149 0.0845,-0.0248 0.16892,-0.0596 0.0894,-0.0398 0.16892,-0.0845 0.0795,-0.0447 0.14905,-0.0745 z m -0.68562,3.84546 q 0.0149,-0.0298 0.0348,-0.0944 0.0248,-0.0596 0.0497,-0.13911 l -0.21364,0.14407 q -0.15402,0.10931 -0.22854,0.20867 -0.0795,0.10434 -0.0944,0.17886 -0.0149,0.0745 0.0199,0.10931 0.0348,0.0348 0.10433,0.005 0.0646,-0.0248 0.14905,-0.1242 0.0894,-0.0994 0.17886,-0.28817 z" />
    <path
       inkscape:connector-curvature="0"
       id="path829"
       style="font-style:normal;font-variant:normal;font-weight:normal;font-stretch:normal;font-size:medium;line-height:1.25;font-family:'Megan Personal Use';-inkscape-font-specification:'Megan Personal Use';letter-spacing:0px;word-spacing:0px;fill:#ffffff;fill-opacity:1;stroke:none;stroke-width:0.12420749"
       d="m -169.94334,183.4846 q -0.0745,0.16892 -0.14408,0.37263 -0.0646,0.19873 -0.15899,0.37262 -0.0944,0.16892 -0.22357,0.28816 -0.12918,0.11427 -0.32294,0.11427 -0.24345,-0.005 -0.34778,-0.17389 -0.10434,-0.16892 -0.11924,-0.42728 -0.0199,-0.25835 0.0298,-0.57135 0.0497,-0.31797 0.11924,-0.61607 0.0646,-0.30307 0.12917,-0.55148 0.0646,-0.25338 0.0795,-0.38256 0.0248,-0.0745 0.12918,-0.0348 0.1093,0.0348 0.22357,0.11924 0.11428,0.0845 0.19377,0.19377 0.0795,0.1093 0.0447,0.18382 -0.0745,0.17389 -0.13414,0.43721 -0.0596,0.26332 -0.0994,0.51671 -0.0248,0.15898 -0.0447,0.313 -0.0149,0.15401 -0.005,0.23351 0.0149,0.0745 0.0646,0.0348 0.0547,-0.0398 0.16893,-0.26332 0.0398,-0.0795 0.0745,-0.15402 0.0348,-0.0795 0.0894,-0.2037 0.0398,-0.0845 0.0944,-0.0944 0.0547,-0.0149 0.0994,0.0248 0.0447,0.0348 0.0646,0.1093 0.0199,0.0695 -0.005,0.15898 z m -0.88436,-2.00223 q -0.0248,-0.14407 0.0546,-0.23847 0.0845,-0.0944 0.22854,-0.0944 0.14408,0 0.25338,0.0944 0.10931,0.0944 0.13415,0.23847 0.0248,0.14409 -0.0596,0.23848 -0.0795,0.0894 -0.22357,0.0894 -0.14408,0 -0.25339,-0.0894 -0.1093,-0.0944 -0.13414,-0.23848 z" />
    <path
       inkscape:connector-curvature="0"
       id="path831"
       style="font-style:normal;font-variant:normal;font-weight:normal;font-stretch:normal;font-size:medium;line-height:1.25;font-family:'Megan Personal Use';-inkscape-font-specification:'Megan Personal Use';letter-spacing:0px;word-spacing:0px;fill:#ffffff;fill-opacity:1;stroke:none;stroke-width:0.12420749"
       d="m -168.24806,180.90108 q -0.01,0.45212 -0.11924,0.88436 -0.10434,0.42727 -0.29314,0.78499 -0.18382,0.35772 -0.4372,0.61607 -0.25339,0.25339 -0.55149,0.35772 -0.0198,0.17389 -0.0447,0.32791 -0.0199,0.14905 -0.0398,0.29313 0.22358,-0.0348 0.39747,-0.0894 0.17886,-0.0547 0.32294,-0.15402 0.14408,-0.0994 0.26829,-0.25338 0.12917,-0.15899 0.25338,-0.4074 0.0348,-0.0497 0.0795,-0.0497 0.0447,0 0.0845,0.0298 0.0398,0.0298 0.0646,0.0894 0.0248,0.0547 0.01,0.11924 -0.0546,0.17389 -0.14408,0.34281 -0.0894,0.16396 -0.22854,0.31798 -0.13911,0.14905 -0.33288,0.27325 -0.19376,0.12421 -0.45211,0.20371 0.12421,0.19376 0.15402,0.40739 0.0348,0.21364 0,0.41734 -0.0348,0.20867 -0.12421,0.3925 -0.0845,0.18383 -0.2037,0.313 -0.11427,0.12918 -0.24345,0.1888 -0.12918,0.0646 -0.24344,0.0298 -0.11924,-0.0348 -0.20867,-0.18383 -0.0944,-0.14905 -0.13415,-0.43721 -0.0497,-0.31797 -0.0298,-0.77506 0.0149,-0.45708 0.0944,-0.97378 0.0745,-0.52168 0.19873,-1.06819 0.12421,-0.54651 0.28319,-1.04334 0.15899,-0.5018 0.34282,-0.91417 0.18383,-0.41237 0.38256,-0.66575 0.12917,-0.16396 0.28319,-0.15402 0.15899,0.005 0.29313,0.11427 0.13415,0.10931 0.22358,0.29313 0.0944,0.18383 0.0944,0.37262 z m -0.62601,0.28817 q -0.0894,0.16395 -0.17886,0.37262 -0.0845,0.2037 -0.16892,0.42727 -0.0795,0.22357 -0.14905,0.45212 -0.0696,0.22357 -0.12918,0.42727 0.1888,-0.16395 0.34282,-0.41237 0.15898,-0.25338 0.26828,-0.51173 0.11428,-0.26332 0.1739,-0.49683 0.0646,-0.23848 0.0695,-0.36766 0.005,-0.13414 -0.0497,-0.1242 -0.0547,0.005 -0.17886,0.23351 z m -0.90423,3.31882 q -0.0248,0.18383 -0.0398,0.37759 -0.0149,0.19873 -0.0248,0.43721 -0.0149,0.25339 0.005,0.33288 0.0199,0.0845 0.0547,0.0447 0.0398,-0.0398 0.0745,-0.16892 0.0398,-0.12918 0.0547,-0.2981 0.0149,-0.16892 -0.005,-0.34778 -0.0149,-0.17886 -0.0894,-0.31797 z" />
    <path
       inkscape:connector-curvature="0"
       id="path833"
       style="font-style:normal;font-variant:normal;font-weight:normal;font-stretch:normal;font-size:medium;line-height:1.25;font-family:'Megan Personal Use';-inkscape-font-specification:'Megan Personal Use';letter-spacing:0px;word-spacing:0px;fill:#ffffff;fill-opacity:1;stroke:none;stroke-width:0.12420749"
       d="m -166.2071,183.47466 q -0.0696,0.18383 -0.14905,0.38753 -0.0795,0.2037 -0.18383,0.37262 -0.10433,0.16893 -0.24841,0.2832 -0.14409,0.1093 -0.34778,0.1093 -0.14905,-0.005 -0.23848,-0.0845 -0.0845,-0.0845 -0.12421,-0.22854 -0.10434,0.15898 -0.26332,0.24345 -0.15402,0.0845 -0.30804,0.0646 -0.15401,-0.0248 -0.28319,-0.17886 -0.12918,-0.15401 -0.17886,-0.47695 -0.0447,-0.2832 -0.005,-0.62104 0.0348,-0.33784 0.13911,-0.65085 0.0994,-0.31797 0.25835,-0.57632 0.15898,-0.25835 0.36269,-0.38256 0.0795,-0.0547 0.19376,-0.0646 0.11924,-0.01 0.23351,0.0298 0.11427,0.0348 0.20867,0.12421 0.0994,0.0845 0.14904,0.2186 0.0795,0.0497 0.16396,0.11924 0.0894,0.0646 0.15402,0.12918 0.0695,0.0646 0.0994,0.11924 0.0348,0.0547 0.005,0.0795 -0.0696,0.0547 -0.10931,0.13415 -0.0348,0.0745 -0.0646,0.18382 -0.0298,0.10931 -0.0547,0.25338 -0.0248,0.14409 -0.0646,0.32791 -0.0447,0.22855 -0.0398,0.34779 0.005,0.11924 0.0447,0.14407 0.0398,0.0199 0.10433,-0.0447 0.0646,-0.0695 0.13912,-0.2186 l 0.15401,-0.34281 q 0.0398,-0.0745 0.0944,-0.0795 0.0547,-0.01 0.0944,0.0248 0.0447,0.0298 0.0646,0.0994 0.0248,0.0696 0,0.15402 z m -1.80846,0.26333 q 0.0149,0.22854 0.0795,0.27822 0.0696,0.0497 0.15401,-0.0149 0.0845,-0.0646 0.16396,-0.20867 0.0795,-0.14408 0.11924,-0.30306 0.0348,-0.24842 0.0894,-0.49683 0.0546,-0.24842 0.0944,-0.48193 -0.01,-0.0199 -0.01,-0.0447 -0.0199,-0.20867 -0.0795,-0.24841 -0.0596,-0.0398 -0.14408,0.0447 -0.0795,0.0795 -0.16892,0.25338 -0.0845,0.17389 -0.15899,0.38753 -0.0695,0.20867 -0.11427,0.43224 -0.0398,0.22358 -0.0248,0.40244 z" />
    <path
       inkscape:connector-curvature="0"
       id="path835"
       style="font-style:normal;font-variant:normal;font-weight:normal;font-stretch:normal;font-size:medium;line-height:1.25;font-family:'Megan Personal Use';-inkscape-font-specification:'Megan Personal Use';letter-spacing:0px;word-spacing:0px;fill:#ffffff;fill-opacity:1;stroke:none;stroke-width:0.12420749"
       d="m -165.15316,181.39295 q -0.0298,0.0646 -0.1093,0.0546 -0.0795,-0.0149 -0.17886,-0.0745 -0.0994,-0.0596 -0.19873,-0.15401 -0.0994,-0.0944 -0.16395,-0.19874 -0.0696,-0.10433 -0.0894,-0.20369 -0.0199,-0.10434 0.0447,-0.17886 0.16892,-0.20867 0.39746,-0.34282 0.22855,-0.13414 0.45709,-0.21364 0.23351,-0.0795 0.44715,-0.1093 0.21363,-0.0298 0.35275,-0.0298 0.14407,0 0.31797,0.0298 0.17389,0.0298 0.35275,0.10434 0.18382,0.0696 0.35274,0.18382 0.17389,0.11428 0.30804,0.2832 0.13911,0.16892 0.22357,0.3925 0.0894,0.22357 0.0994,0.51173 0,0.26829 -0.0745,0.53161 -0.0696,0.25835 -0.20371,0.49683 -0.12917,0.23351 -0.31797,0.43224 -0.18383,0.19873 -0.41237,0.34281 0.0894,0.1888 0.17886,0.34281 0.0944,0.14905 0.19873,0.23848 0.10434,0.0894 0.22358,0.0994 0.11924,0.005 0.26332,-0.0994 0.0745,-0.0646 0.12918,-0.12918 0.0546,-0.0646 0.0994,-0.13414 0.0497,-0.0696 0.0944,-0.15401 0.0447,-0.0845 0.0994,-0.1888 0.0348,-0.0596 0.0795,-0.0546 0.0497,0 0.0845,0.0447 0.0398,0.0447 0.0596,0.11924 0.0198,0.0695 -0.005,0.14408 -0.0646,0.18879 -0.14408,0.38256 -0.0745,0.19376 -0.17886,0.36268 -0.10434,0.16396 -0.24345,0.28817 -0.13911,0.11924 -0.32294,0.15401 -0.26829,0.0447 -0.46205,-0.0646 -0.19376,-0.11428 -0.33287,-0.30307 -0.13415,-0.18879 -0.22854,-0.41237 -0.0894,-0.22357 -0.15403,-0.4074 -0.0795,0.01 -0.16395,0.0248 -0.0795,0.0149 -0.16395,0.0149 l -0.26829,1.14768 q -0.0149,0.0596 -0.11924,0.0298 -0.0994,-0.0298 -0.21364,-0.10434 -0.11427,-0.0795 -0.20866,-0.17886 -0.0894,-0.0994 -0.0795,-0.16892 0.0199,-0.15898 0.0596,-0.3925 0.0398,-0.2335 0.0894,-0.51173 0.0497,-0.27823 0.1093,-0.58129 0.0646,-0.30804 0.12918,-0.6111 0.0646,-0.30804 0.12421,-0.5962 0.0596,-0.28816 0.11427,-0.53657 0,-0.0398 0.0646,-0.0596 0.0695,-0.0199 0.16395,-0.0199 0.0994,0 0.21364,0.0149 0.11427,0.01 0.20866,0.0348 0.0994,0.0248 0.15899,0.0646 0.0646,0.0348 0.0596,0.0745 -0.11924,0.41238 -0.23848,0.88437 -0.11924,0.47198 -0.23351,0.94397 0.19376,-0.0795 0.38256,-0.21363 0.1888,-0.13415 0.32791,-0.33288 0.14408,-0.19873 0.21861,-0.47199 0.0795,-0.27326 0.0596,-0.64091 -0.01,-0.14905 -0.0497,-0.28319 -0.0348,-0.13415 -0.10433,-0.23848 -0.0696,-0.10434 -0.17389,-0.17389 -0.10434,-0.0745 -0.24842,-0.0994 -0.15899,-0.0248 -0.33287,0.0348 -0.16893,0.0546 -0.33785,0.17388 -0.16892,0.11924 -0.32294,0.2981 -0.14905,0.17389 -0.26829,0.38753 z" />
    <path
       inkscape:connector-curvature="0"
       id="path837"
       style="font-style:normal;font-variant:normal;font-weight:normal;font-stretch:normal;font-size:medium;line-height:1.25;font-family:'Megan Personal Use';-inkscape-font-specification:'Megan Personal Use';letter-spacing:0px;word-spacing:0px;fill:#ffffff;fill-opacity:1;stroke:none;stroke-width:0.12420749"
       d="m -160.7389,181.85003 q 0.19377,0.18383 0.23848,0.48192 0.0447,0.28817 -0.0547,0.53161 -0.0994,0.24345 -0.28319,0.41734 -0.17886,0.17389 -0.4074,0.26332 -0.22855,0.0894 -0.43722,0.0646 0.005,0.23848 0.0845,0.35772 0.0795,0.11427 0.2037,0.13414 0.1242,0.0149 0.27325,-0.0497 0.15402,-0.0696 0.2981,-0.19376 0.14408,-0.12918 0.26829,-0.2981 0.1242,-0.17389 0.19376,-0.37263 0.0348,-0.0745 0.0845,-0.0745 0.0497,-0.005 0.0894,0.0447 0.0398,0.0497 0.0547,0.13911 0.0149,0.0845 -0.0149,0.17886 -0.0944,0.26332 -0.2186,0.48192 -0.12421,0.21861 -0.28817,0.37263 -0.15898,0.15402 -0.36268,0.23848 -0.2037,0.0845 -0.45708,0.0845 -0.36766,-0.0149 -0.58626,-0.30804 -0.21861,-0.29312 -0.23848,-0.88932 0,-0.27823 0.0596,-0.55148 0.0596,-0.27823 0.16892,-0.51671 0.1093,-0.23847 0.25338,-0.41733 0.14905,-0.17886 0.32294,-0.26333 0.1739,-0.0845 0.36269,-0.0546 0.19376,0.0248 0.3925,0.19873 z m -0.25338,0.71544 q 0.0546,-0.1739 0.0398,-0.2832 -0.0149,-0.11427 -0.0696,-0.14905 -0.0546,-0.0398 -0.14408,0 -0.0845,0.0398 -0.17886,0.16892 -0.0894,0.12918 -0.17389,0.34779 -0.0795,0.2186 -0.12421,0.53657 0.13414,-0.0198 0.24842,-0.10433 0.11426,-0.0845 0.19873,-0.18383 0.0845,-0.10433 0.13911,-0.19873 0.0547,-0.0944 0.0646,-0.13414 z" />
    <path
       inkscape:connector-curvature="0"
       id="path839"
       style="font-style:normal;font-variant:normal;font-weight:normal;font-stretch:normal;font-size:medium;line-height:1.25;font-family:'Megan Personal Use';-inkscape-font-specification:'Megan Personal Use';letter-spacing:0px;word-spacing:0px;fill:#ffffff;fill-opacity:1;stroke:none;stroke-width:0.12420749"
       d="m -160.26761,183.74792 q -0.0348,0.0596 -0.0745,0.0497 -0.0447,-0.01 -0.0745,-0.0646 -0.0348,-0.0546 -0.0497,-0.13414 -0.0149,-0.0795 0.005,-0.15402 0.0745,-0.17389 0.13415,-0.32294 0.0547,-0.14905 0.1093,-0.28816 0.0497,-0.14408 0.0994,-0.28319 0.0497,-0.13911 0.1093,-0.28816 -0.0149,-0.21861 0.0547,-0.40243 0.0695,-0.1888 0.16892,-0.2981 0.0994,-0.1093 0.2037,-0.11427 0.1093,-0.005 0.16396,0.13414 0.0398,0.0994 -0.005,0.1888 -0.0398,0.0894 -0.1093,0.19376 -0.0199,0.0546 -0.0199,0.12918 0.005,0.0695 0.0447,0.16892 0.2037,0.45211 0.34282,0.82474 0.14407,0.36765 0.17886,0.66575 0.0795,-0.0795 0.15401,-0.19873 0.0745,-0.11924 0.14408,-0.29313 0.0298,-0.0596 0.0745,-0.0646 0.0497,-0.01 0.0894,0.0248 0.0447,0.0298 0.0745,0.0894 0.0298,0.0596 0.0199,0.12918 -0.14408,0.40243 -0.313,0.62103 -0.16892,0.21364 -0.35275,0.30307 -0.0398,0.0795 -0.13911,0.15402 -0.0944,0.0745 -0.22358,0.12918 -0.1242,0.0546 -0.26332,0.0745 -0.13911,0.0248 -0.27325,0.01 -0.12918,-0.0149 -0.23352,-0.0795 -0.1093,-0.0646 -0.16395,-0.19376 -0.0547,-0.12421 -0.0447,-0.22854 0.005,-0.10434 0.0447,-0.18383 0.0398,-0.0795 0.10433,-0.12421 0.0596,-0.0447 0.11428,-0.0447 0.13911,0 0.27325,0.0497 0.13912,0.0447 0.27823,0.0547 0.0248,-0.0845 0.005,-0.19873 -0.0198,-0.11924 -0.0646,-0.26332 -0.0447,-0.14905 -0.10434,-0.32294 -0.0547,-0.17389 -0.1093,-0.37759 -0.0994,0.27823 -0.18383,0.50677 -0.0845,0.22854 -0.18879,0.4223 z" />
    <path
       inkscape:connector-curvature="0"
       id="path841"
       style="font-style:normal;font-variant:normal;font-weight:normal;font-stretch:normal;font-size:medium;line-height:1.25;font-family:'Megan Personal Use';-inkscape-font-specification:'Megan Personal Use';letter-spacing:0px;word-spacing:0px;fill:#ffffff;fill-opacity:1;stroke:none;stroke-width:0.12420749"
       d="m -157.45159,183.4846 q -0.0745,0.16892 -0.14408,0.37263 -0.0646,0.19873 -0.15899,0.37262 -0.0944,0.16892 -0.22357,0.28816 -0.12918,0.11427 -0.32294,0.11427 -0.24345,-0.005 -0.34778,-0.17389 -0.10434,-0.16892 -0.11924,-0.42728 -0.0199,-0.25835 0.0298,-0.57135 0.0497,-0.31797 0.11924,-0.61607 0.0646,-0.30307 0.12917,-0.55148 0.0646,-0.25338 0.0795,-0.38256 0.0248,-0.0745 0.12917,-0.0348 0.1093,0.0348 0.22358,0.11924 0.11427,0.0845 0.19376,0.19377 0.0795,0.1093 0.0447,0.18382 -0.0745,0.17389 -0.13414,0.43721 -0.0596,0.26332 -0.0994,0.51671 -0.0248,0.15898 -0.0447,0.313 -0.0149,0.15401 -0.005,0.23351 0.0149,0.0745 0.0646,0.0348 0.0546,-0.0398 0.16892,-0.26332 0.0398,-0.0795 0.0745,-0.15402 0.0348,-0.0795 0.0894,-0.2037 0.0398,-0.0845 0.0944,-0.0944 0.0547,-0.0149 0.0994,0.0248 0.0447,0.0348 0.0646,0.1093 0.0199,0.0695 -0.005,0.15898 z m -0.88436,-2.00223 q -0.0248,-0.14407 0.0547,-0.23847 0.0845,-0.0944 0.22854,-0.0944 0.14409,0 0.25339,0.0944 0.1093,0.0944 0.13414,0.23847 0.0248,0.14409 -0.0596,0.23848 -0.0795,0.0894 -0.22357,0.0894 -0.14408,0 -0.25339,-0.0894 -0.1093,-0.0944 -0.13414,-0.23848 z" />
    <path
       inkscape:connector-curvature="0"
       id="path843"
       style="font-style:normal;font-variant:normal;font-weight:normal;font-stretch:normal;font-size:medium;line-height:1.25;font-family:'Megan Personal Use';-inkscape-font-specification:'Megan Personal Use';letter-spacing:0px;word-spacing:0px;fill:#ffffff;fill-opacity:1;stroke:none;stroke-width:0.12420749"
       d="m -155.4135,183.47466 q -0.0696,0.1739 -0.13911,0.37759 -0.0646,0.19874 -0.16396,0.3776 -0.0944,0.17389 -0.23351,0.29312 -0.13414,0.11428 -0.33784,0.11428 -0.16892,-0.01 -0.26829,-0.0894 -0.0994,-0.0845 -0.14905,-0.22358 -0.11427,0.16396 -0.27822,0.24842 -0.15899,0.0795 -0.313,0.0546 -0.15403,-0.0298 -0.27823,-0.18383 -0.12421,-0.15898 -0.16395,-0.47695 -0.0398,-0.2832 0,-0.62104 0.0348,-0.33784 0.13414,-0.65085 0.0994,-0.31797 0.25835,-0.57632 0.15899,-0.25835 0.36269,-0.38256 0.0596,-0.0348 0.13414,-0.0497 0.0795,-0.0149 0.15898,-0.005 0.0845,0.005 0.16396,0.0398 0.0845,0.0298 0.15402,0.0845 0.0447,-0.18383 0.0795,-0.35772 0.0398,-0.17389 0.0696,-0.31301 0.0298,-0.14408 0.0447,-0.24841 0.0199,-0.10434 0.0199,-0.15402 0.0149,-0.0497 0.0795,-0.0447 0.0646,0.005 0.14409,0.0447 0.0845,0.0398 0.16892,0.10434 0.0894,0.0646 0.15402,0.13911 0.0696,0.0696 0.10433,0.13911 0.0348,0.0646 0.005,0.10434 -0.0348,0.0497 -0.0845,0.19873 -0.0497,0.14408 -0.10434,0.34281 -0.0547,0.19873 -0.11427,0.43224 -0.0546,0.23351 -0.10433,0.46205 -0.0497,0.22358 -0.0944,0.41734 -0.0398,0.19377 -0.0646,0.31797 -0.0447,0.22855 -0.0398,0.34779 0.005,0.11923 0.0447,0.14407 0.0398,0.0199 0.10434,-0.0447 0.0646,-0.0695 0.13911,-0.2186 l 0.15402,-0.34281 q 0.0398,-0.0745 0.0944,-0.0795 0.0547,-0.01 0.0944,0.0248 0.0447,0.0298 0.0646,0.0994 0.0248,0.0696 0,0.15402 z m -1.80846,0.26333 q 0.0149,0.2335 0.0795,0.28319 0.0646,0.0497 0.14408,-0.0149 0.0795,-0.0696 0.15402,-0.21364 0.0745,-0.14905 0.10433,-0.30803 0.0398,-0.24842 0.0894,-0.49187 0.0547,-0.24345 0.12421,-0.51173 l -0.005,-0.0149 q -0.0199,-0.20867 -0.0795,-0.24841 -0.0596,-0.0398 -0.14408,0.0447 -0.0795,0.0795 -0.16892,0.25338 -0.0845,0.17389 -0.15899,0.38753 -0.0696,0.20867 -0.11427,0.43224 -0.0398,0.22357 -0.0248,0.40243 z" />
    <path
       inkscape:connector-curvature="0"
       id="path845"
       style="font-style:normal;font-variant:normal;font-weight:normal;font-stretch:normal;font-size:medium;line-height:1.25;font-family:'Megan Personal Use';-inkscape-font-specification:'Megan Personal Use';letter-spacing:0px;word-spacing:0px;fill:#ffffff;fill-opacity:1;stroke:none;stroke-width:0.12420749"
       d="m -154.12097,181.85003 q 0.19377,0.18383 0.23848,0.48192 0.0447,0.28817 -0.0547,0.53161 -0.0994,0.24345 -0.28319,0.41734 -0.17886,0.17389 -0.4074,0.26332 -0.22854,0.0894 -0.43721,0.0646 0.005,0.23848 0.0845,0.35772 0.0795,0.11427 0.2037,0.13414 0.1242,0.0149 0.27325,-0.0497 0.15402,-0.0696 0.2981,-0.19376 0.14408,-0.12918 0.26829,-0.2981 0.12421,-0.17389 0.19376,-0.37263 0.0348,-0.0745 0.0845,-0.0745 0.0497,-0.005 0.0894,0.0447 0.0398,0.0497 0.0547,0.13911 0.0149,0.0845 -0.0149,0.17886 -0.0944,0.26332 -0.21861,0.48192 -0.1242,0.21861 -0.28816,0.37263 -0.15898,0.15402 -0.36269,0.23848 -0.20369,0.0845 -0.45708,0.0845 -0.36765,-0.0149 -0.58626,-0.30804 -0.2186,-0.29312 -0.23848,-0.88932 0,-0.27823 0.0596,-0.55148 0.0596,-0.27823 0.16893,-0.51671 0.1093,-0.23847 0.25338,-0.41733 0.14905,-0.17886 0.32294,-0.26333 0.17389,-0.0845 0.36269,-0.0546 0.19376,0.0248 0.39249,0.19873 z m -0.25338,0.71544 q 0.0546,-0.1739 0.0398,-0.2832 -0.0149,-0.11427 -0.0696,-0.14905 -0.0547,-0.0398 -0.14408,0 -0.0845,0.0398 -0.17886,0.16892 -0.0894,0.12918 -0.17388,0.34779 -0.0795,0.2186 -0.12421,0.53657 0.13414,-0.0198 0.24841,-0.10433 0.11427,-0.0845 0.19873,-0.18383 0.0845,-0.10433 0.13912,-0.19873 0.0547,-0.0944 0.0646,-0.13414 z" />
    <path
       inkscape:connector-curvature="0"
       id="path847"
       style="font-style:normal;font-variant:normal;font-weight:normal;font-stretch:normal;font-size:medium;line-height:1.25;font-family:'Megan Personal Use';-inkscape-font-specification:'Megan Personal Use';letter-spacing:0px;word-spacing:0px;fill:#ffffff;fill-opacity:1;stroke:none;stroke-width:0.12420749"
       d="m -153.5056,181.71589 q 0.0248,-0.0745 0.11427,-0.0497 0.0944,0.0248 0.19377,0.0994 0.10433,0.0745 0.17886,0.17886 0.0795,0.10433 0.0695,0.18383 l -0.0845,0.37262 q 0.0745,-0.13414 0.15402,-0.27326 0.0845,-0.14408 0.18383,-0.25835 0.0994,-0.11924 0.21363,-0.19376 0.11924,-0.0795 0.25835,-0.0894 0.10434,0.01 0.19874,0.0795 0.0994,0.0646 0.15898,0.17886 0.0646,0.11427 0.0795,0.27822 0.0149,0.16396 -0.0497,0.37263 -0.0298,0.0994 -0.0894,0.28319 -0.0547,0.17886 -0.1093,0.37759 -0.0547,0.19873 -0.0944,0.38256 -0.0398,0.17886 -0.0398,0.27822 0,0.0994 0.0547,0.0845 0.0546,-0.0198 0.1888,-0.22357 0.0845,-0.12421 0.14408,-0.25835 0.0596,-0.13911 0.11427,-0.24345 0.0298,-0.0695 0.0745,-0.0845 0.0497,-0.0149 0.0944,0.01 0.0447,0.0248 0.0745,0.0845 0.0298,0.0547 0.0198,0.13415 -0.0596,0.20866 -0.14407,0.43224 -0.0795,0.2186 -0.19377,0.39746 -0.11427,0.17886 -0.27326,0.28816 -0.15401,0.10931 -0.36765,0.0944 -0.15402,-0.01 -0.24841,-0.0795 -0.0894,-0.0745 -0.13415,-0.18879 -0.0398,-0.11428 -0.0398,-0.25339 0,-0.14408 0.0199,-0.28319 0.0198,-0.14408 0.0546,-0.27326 0.0348,-0.13414 0.0696,-0.23351 0.0497,-0.13911 0.0944,-0.29313 0.0447,-0.15899 0.0795,-0.2981 0.0348,-0.14408 0.0497,-0.25338 0.0149,-0.11427 -0.005,-0.16395 -0.0149,-0.0547 -0.0696,-0.0298 -0.0547,0.0248 -0.15898,0.15898 -0.0596,0.0795 -0.14408,0.21861 -0.0845,0.13911 -0.16893,0.28319 -0.0845,0.13911 -0.15401,0.25835 -0.0696,0.11924 -0.0994,0.16396 -0.0596,0.30306 -0.0944,0.60116 -0.0348,0.29313 -0.0248,0.60116 -0.0248,0.0596 -0.11924,0.0795 -0.0944,0.0199 -0.19376,0 -0.0994,-0.0149 -0.17886,-0.0596 -0.0795,-0.0497 -0.0795,-0.12421 -0.0298,-0.25835 0.005,-0.5962 0.0348,-0.33784 0.10434,-0.70549 0.0646,-0.36766 0.15402,-0.74028 0.0845,-0.37759 0.15898,-0.7055 z" />
    <path
       inkscape:connector-curvature="0"
       id="path849"
       style="font-style:normal;font-variant:normal;font-weight:normal;font-stretch:normal;font-size:medium;line-height:1.25;font-family:'Megan Personal Use';-inkscape-font-specification:'Megan Personal Use';letter-spacing:0px;word-spacing:0px;fill:#ffffff;fill-opacity:1;stroke:none;stroke-width:0.12420749"
       d="m -150.0038,183.15172 q -0.0298,0.0497 -0.12917,0.0447 -0.0944,-0.005 -0.19377,-0.0398 -0.0994,-0.0398 -0.16892,-0.0944 -0.0646,-0.0547 -0.0398,-0.10433 0.15899,-0.27822 0.19377,-0.46702 0.0398,-0.19376 -0.005,-0.28319 -0.0447,-0.0894 -0.14408,-0.0696 -0.0944,0.0199 -0.2037,0.16395 -0.1093,0.14408 -0.20867,0.42231 -0.0944,0.27326 -0.13414,0.70053 -0.0248,0.28816 0.0348,0.44715 0.0646,0.15401 0.17885,0.2037 0.11924,0.0447 0.26829,-0.005 0.15402,-0.0497 0.30307,-0.16892 0.15402,-0.12421 0.28816,-0.30307 0.13415,-0.18383 0.21364,-0.40243 0.0348,-0.0894 0.0845,-0.0944 0.0546,-0.005 0.0944,0.0447 0.0447,0.0497 0.0596,0.13911 0.0199,0.0894 -0.0149,0.1888 -0.0944,0.26332 -0.2186,0.48192 -0.11924,0.21861 -0.28319,0.37262 -0.15899,0.15402 -0.35772,0.23848 -0.19873,0.0845 -0.45212,0.0845 -0.36268,-0.0149 -0.58129,-0.30306 -0.2186,-0.29313 -0.2335,-0.87442 0,-0.27823 0.0596,-0.55148 0.0596,-0.27823 0.16892,-0.51671 0.10433,-0.23848 0.24841,-0.41734 0.14905,-0.17886 0.31797,-0.26331 0.17389,-0.0845 0.36269,-0.0547 0.19376,0.0248 0.38752,0.20371 0.13415,0.11923 0.19874,0.28319 0.0646,0.16395 0.0695,0.34281 0.01,0.17389 -0.0348,0.34778 -0.0447,0.16892 -0.12918,0.30307 z" />
    <path
       inkscape:connector-curvature="0"
       id="path851"
       style="font-style:normal;font-variant:normal;font-weight:normal;font-stretch:normal;font-size:medium;line-height:1.25;font-family:'Megan Personal Use';-inkscape-font-specification:'Megan Personal Use';letter-spacing:0px;word-spacing:0px;fill:#ffffff;fill-opacity:1;stroke:none;stroke-width:0.12420749"
       d="m -148.23082,181.85003 q 0.19377,0.18383 0.23848,0.48192 0.0447,0.28817 -0.0546,0.53161 -0.0994,0.24345 -0.28319,0.41734 -0.17886,0.17389 -0.4074,0.26332 -0.22854,0.0894 -0.43721,0.0646 0.005,0.23848 0.0845,0.35772 0.0795,0.11427 0.2037,0.13414 0.12421,0.0149 0.27326,-0.0497 0.15401,-0.0696 0.29809,-0.19376 0.14408,-0.12918 0.26829,-0.2981 0.12421,-0.17389 0.19377,-0.37263 0.0348,-0.0745 0.0845,-0.0745 0.0497,-0.005 0.0894,0.0447 0.0398,0.0497 0.0547,0.13911 0.0149,0.0845 -0.0149,0.17886 -0.0944,0.26332 -0.21861,0.48192 -0.1242,0.21861 -0.28816,0.37263 -0.15899,0.15402 -0.36268,0.23848 -0.2037,0.0845 -0.45709,0.0845 -0.36765,-0.0149 -0.58626,-0.30804 -0.2186,-0.29312 -0.23847,-0.88932 0,-0.27823 0.0596,-0.55148 0.0596,-0.27823 0.16892,-0.51671 0.1093,-0.23847 0.25338,-0.41733 0.14905,-0.17886 0.32294,-0.26333 0.17389,-0.0845 0.36268,-0.0546 0.19377,0.0248 0.3925,0.19873 z m -0.25338,0.71544 q 0.0546,-0.1739 0.0398,-0.2832 -0.0149,-0.11427 -0.0696,-0.14905 -0.0546,-0.0398 -0.14407,0 -0.0845,0.0398 -0.17886,0.16892 -0.0894,0.12918 -0.1739,0.34779 -0.0795,0.2186 -0.1242,0.53657 0.13414,-0.0198 0.24841,-0.10433 0.11427,-0.0845 0.19874,-0.18383 0.0845,-0.10433 0.13911,-0.19873 0.0546,-0.0944 0.0646,-0.13414 z" />
    <path
       style="fill:#ffffff;fill-opacity:1;stroke-width:0.0222934"
       d="m -145.30739,185.15979 c -0.16614,-0.0238 -0.19468,-0.0349 -0.2508,-0.0977 -0.0387,-0.0434 -0.0633,-0.096 -0.0633,-0.13559 0,-0.13725 -0.0191,-0.14218 -0.13791,-0.0354 -0.13599,0.12226 -0.21345,0.14511 -0.49242,0.14527 -0.21346,8e-5 -0.21836,-6.6e-4 -0.23965,-0.0571 -0.012,-0.0314 -0.0218,-0.15535 -0.0218,-0.27532 0,-0.207 0.003,-0.22286 0.0669,-0.31047 0.0368,-0.0507 0.0669,-0.0969 0.0669,-0.10261 0,-0.006 -0.0503,-0.005 -0.1118,0.003 -0.1352,0.016 -0.18082,-0.0162 -0.25897,-0.18254 -0.0796,-0.16944 -0.0755,-0.17834 0.12555,-0.27023 0.0981,-0.0448 0.17834,-0.0912 0.17834,-0.10306 0,-0.0118 -0.025,-0.0513 -0.0557,-0.0878 -0.0913,-0.10847 -0.0617,-0.22203 0.0661,-0.25411 0.0832,-0.0208 0.58301,0.0297 0.65343,0.0661 0.0353,0.0182 0.10115,0.0741 0.14637,0.1242 0.0673,0.0744 0.0796,0.10212 0.0677,0.15192 -0.0214,0.0895 -0.0267,0.0943 -0.10444,0.095 l -0.0711,6.2e-4 0.0613,0.0458 c 0.0778,0.0581 0.0773,0.0833 -0.002,0.1111 -0.0523,0.0182 -0.0617,0.0322 -0.0528,0.0786 0.009,0.0456 0.0204,0.054 0.061,0.0438 0.0723,-0.0181 0.10471,0.0339 0.12076,0.19408 l 0.0139,0.13844 0.0411,-0.12262 c 0.0557,-0.16604 0.0686,-0.17552 0.1426,-0.10463 0.0791,0.0758 0.0986,0.076 0.07,6.1e-4 -0.0352,-0.0926 0.005,-0.11085 0.11698,-0.0531 l 0.0962,0.0496 -0.0862,-0.0891 c -0.0872,-0.0903 -0.0917,-0.13776 -0.0128,-0.13776 0.0238,0 0.0433,-0.0139 0.0433,-0.031 0,-0.0462 0.0514,-0.0581 0.25115,-0.0581 0.21926,0 0.34758,0.0517 0.40204,0.16201 0.1045,0.21164 0.14294,0.32317 0.12342,0.35806 -0.024,0.0429 -0.19819,0.14895 -0.24353,0.14824 -0.0174,-2.4e-4 -0.0565,-0.0206 -0.0872,-0.0452 -0.0306,-0.0246 -0.0847,-0.0662 -0.12018,-0.0924 l -0.0644,-0.0477 0.0624,0.10642 c 0.0761,0.12979 0.0799,0.2561 0.0118,0.38955 -0.0575,0.11274 -0.24775,0.31525 -0.29231,0.31117 -0.0176,-0.001 -0.11633,-0.015 -0.21944,-0.0298 z"
       id="path1012"
       inkscape:connector-curvature="0" />
    <path
       style="fill:#ffffff;fill-opacity:1;stroke-width:0.0222934"
       d="m -145.04288,180.11083 c -0.0308,-0.003 -0.0857,0.0131 -0.16986,0.0427 -0.44226,0.15545 -0.87058,0.66904 -0.97704,1.17165 -0.065,0.30663 -0.036,0.69801 0.0752,1.01841 0.0612,0.17628 0.23141,0.50025 0.3376,0.64257 0.10259,0.13754 0.10954,0.16392 0.0342,0.12962 -0.0698,-0.0318 -0.12411,-0.0107 -0.12411,0.0484 0,0.0319 0.0242,0.0565 0.077,0.0786 0.0423,0.0177 0.10506,0.0689 0.13936,0.11387 0.17772,0.23282 0.34622,0.37436 0.51646,0.43371 0.0604,0.021 0.0787,0.0187 0.11486,-0.014 0.0411,-0.0371 0.0482,-0.0367 0.15674,0.01 0.16677,0.0717 0.46001,0.1297 0.80143,0.15836 0.6582,0.0553 0.8603,0.0996 0.91417,0.20023 0.0348,0.0652 0.0795,0.0542 0.11424,-0.0281 0.0213,-0.0506 0.0305,-0.17362 0.0305,-0.40684 0,-0.32191 -0.003,-0.33962 -0.0646,-0.47433 -0.10784,-0.23353 -0.24956,-0.328 -0.5412,-0.36072 -0.0913,-0.0103 -0.17232,-0.0249 -0.17999,-0.0326 -0.008,-0.008 0.007,-0.0815 0.0337,-0.16399 0.11902,-0.37398 0.11992,-0.64065 0.004,-1.16427 -0.11699,-0.52846 -0.0885,-0.7535 0.1265,-0.99904 0.1364,-0.15578 0.11673,-0.17963 -0.11625,-0.14048 -0.3337,0.0561 -0.6051,0.16033 -0.92554,0.35558 -0.16425,0.1001 -0.31434,0.18199 -0.33347,0.18199 -0.0191,0 -0.059,-0.0426 -0.0886,-0.0947 -0.0811,-0.14262 -0.0749,-0.31768 0.018,-0.51495 0.0616,-0.13085 0.0779,-0.18711 0.0266,-0.19161 z m -0.32435,0.31084 c 0.007,0 0.0133,0.0577 0.0134,0.12824 1.4e-4,0.15137 0.0333,0.28369 0.0916,0.36572 0.0231,0.0325 0.042,0.07 0.042,0.0835 v 1.3e-4 c -3e-4,0.0323 -0.16893,0.0284 -0.26472,-0.007 -0.16786,-0.0608 -0.19402,-0.18805 -0.0791,-0.38596 0.0473,-0.0814 0.15772,-0.18536 0.19686,-0.18536 z m 1.46312,0.0948 c 0.0395,0.004 0.0253,0.0547 -0.031,0.16673 -0.0427,0.085 -0.0824,0.20459 -0.0909,0.2736 -0.008,0.0674 -0.0204,0.15013 -0.0269,0.18386 v 1.3e-4 c -0.0153,0.0798 -0.0348,0.0772 -0.13949,-0.0174 -0.0875,-0.0791 -0.15848,-0.19796 -0.15848,-0.26573 0,-0.063 0.19543,-0.24986 0.31509,-0.30135 0.0649,-0.0279 0.10793,-0.0423 0.13162,-0.0398 z m -0.61007,0.74131 c 0.1992,0 0.28221,0.0492 0.29285,0.1736 0.0118,0.13856 -0.0514,0.21949 -0.50058,0.64008 -0.30476,0.28535 -0.44263,0.54941 -0.48871,0.93628 -0.0168,0.14101 -0.031,0.26391 -0.0312,0.2731 -3e-4,0.009 -0.01,0.0168 -0.0205,0.0168 -0.0109,0 -0.0407,-0.0777 -0.0661,-0.17273 -0.21608,-0.80723 -0.003,-1.54561 0.52071,-1.80172 0.11013,-0.0539 0.16192,-0.0654 0.29359,-0.0654 z m -0.86992,0.0302 c 0.0566,0.002 0.097,0.0129 0.097,0.0335 0,0.0167 -0.031,0.0985 -0.0687,0.18186 -0.0918,0.2024 -0.15216,0.44459 -0.17499,0.70182 -0.0287,0.32391 0.004,0.59451 0.12336,1.0199 0.0218,0.0775 -0.0205,0.0597 -0.10436,-0.044 -0.37014,-0.45769 -0.49901,-0.83297 -0.44596,-1.29913 0.031,-0.27297 0.12623,-0.46483 0.26735,-0.53908 0.0727,-0.0383 0.21203,-0.0585 0.30635,-0.0549 z m 1.48837,0.33759 c 0.028,0 0.0113,0.20889 -0.0224,0.27986 -0.0412,0.0868 -0.18578,0.1861 -0.40533,0.27835 -0.16174,0.0679 -0.3397,0.107 -0.33897,0.0744 2.5e-4,-0.0108 0.12799,-0.11487 0.28397,-0.23135 0.15599,-0.11649 0.32547,-0.25436 0.37659,-0.30647 0.0512,-0.0521 0.0989,-0.0948 0.10612,-0.0948 z m 0.0255,0.49046 c 0.0456,0 0.0406,0.12442 -0.01,0.23411 -0.0861,0.18849 -0.17831,0.24486 -0.58257,0.35647 -0.11648,0.0322 -0.30591,0.10301 -0.42097,0.15748 -0.11506,0.0545 -0.2139,0.099 -0.21973,0.099 -0.0184,0 0.0175,-0.11842 0.0709,-0.23398 0.1,-0.21645 0.23318,-0.30588 0.59657,-0.40021 0.22943,-0.0596 0.50055,-0.16007 0.52096,-0.19311 0.007,-0.0109 0.0267,-0.0197 0.0444,-0.0197 z m -0.22198,0.67357 c 0.0836,0.004 0.0651,0.0425 -0.0301,0.15999 -0.16427,0.20266 -0.42524,0.36053 -0.70481,0.42646 v 1.2e-4 c -0.0752,0.0178 -0.17566,0.0325 -0.22324,0.0326 l -0.0865,2.5e-4 0.0115,-0.10199 c 0.008,-0.067 0.0339,-0.13016 0.0769,-0.18399 0.12726,-0.15935 0.46888,-0.29278 0.83781,-0.32734 0.0515,-0.005 0.0906,-0.007 0.11849,-0.006 z m 0.3036,0.18748 c 0.0411,0.002 0.0844,0.0203 0.14548,0.052 0.16036,0.0834 0.20636,0.11953 0.20636,0.16199 0,0.0261 -0.0408,0.036 -0.18611,0.045 -0.16792,0.0104 -0.21248,0.0241 -0.45795,0.13936 -0.26675,0.12528 -0.27654,0.12793 -0.51059,0.13911 -0.26982,0.0129 -0.28203,-0.008 -0.0471,-0.0794 0.24475,-0.0747 0.42448,-0.16867 0.59146,-0.30947 0.12774,-0.10772 0.18999,-0.15154 0.25847,-0.14861 z m 0.054,0.52408 c 0.0687,0.001 0.12024,0.0193 0.17936,0.054 0.11239,0.0659 0.10753,0.0991 -0.0147,0.0991 -0.0473,0 -0.18972,0.0245 -0.31635,0.0544 h -1.2e-4 c -0.38474,0.0908 -0.61433,0.091 -0.89317,6.2e-4 -0.23471,-0.0761 -0.19696,-0.0917 0.26172,-0.10824 0.19936,-0.007 0.38054,-0.0275 0.50158,-0.0564 0.12731,-0.0303 0.21304,-0.045 0.28173,-0.0434 z m 0.47621,0.0348 0.0469,0.0423 c 0.073,0.066 0.10924,0.15375 0.10924,0.26435 0,0.1245 -0.0462,0.13649 -0.11173,0.029 -0.0308,-0.0506 -0.0442,-0.11222 -0.0443,-0.2041 z"
       id="path1010"
       inkscape:connector-curvature="0" />
    <path
       style="fill:#ffffff;fill-opacity:1;stroke-width:0.0222934"
       d="m -146.17885,183.00163 c -0.0937,-0.0343 -0.20687,-0.0487 -0.47932,-0.0608 -0.38859,-0.0172 -0.48324,-0.0416 -0.56474,-0.1452 -0.15561,-0.19783 0.0894,-0.46827 0.25065,-0.27665 0.0689,0.0819 0.0809,0.20661 0.0187,0.19476 -0.0214,-0.004 -0.0422,-0.0292 -0.046,-0.0557 -0.0109,-0.0762 -0.0621,-0.10738 -0.12751,-0.0776 -0.0631,0.0287 -0.077,0.13617 -0.0233,0.18066 0.0396,0.0329 0.23177,0.0609 0.59532,0.087 0.22663,0.0162 0.30592,0.0314 0.40685,0.0775 0.11619,0.0532 0.14988,0.0877 0.10866,0.11142 -0.009,0.005 -0.0719,-0.0106 -0.13934,-0.0354 z"
       id="path986"
       inkscape:connector-curvature="0" />
  </g>
</svg>
