<?xml version="1.0" encoding="UTF-8" standalone="no"?>
<!-- Created with Inkscape (http://www.inkscape.org/) -->

<svg
   xmlns:dc="http://purl.org/dc/elements/1.1/"
   xmlns:cc="http://creativecommons.org/ns#"
   xmlns:rdf="http://www.w3.org/1999/02/22-rdf-syntax-ns#"
   xmlns:svg="http://www.w3.org/2000/svg"
   xmlns="http://www.w3.org/2000/svg"
   xmlns:sodipodi="http://sodipodi.sourceforge.net/DTD/sodipodi-0.dtd"
   xmlns:inkscape="http://www.inkscape.org/namespaces/inkscape"
   width="37.457424mm"
   height="9.261137mm"
   viewBox="0 0 37.457424 9.2611372"
   version="1.1"
   id="svg1712"
   inkscape:version="0.92.3 (2405546, 2018-03-11)"
   sodipodi:docname="nazifalogo.svg">
  <defs
     id="defs1706" />
  <sodipodi:namedview
     id="base"
     pagecolor="#ffffff"
     bordercolor="#666666"
     borderopacity="1.0"
     inkscape:pageopacity="0.0"
     inkscape:pageshadow="2"
     inkscape:zoom="2.8"
     inkscape:cx="66.237209"
     inkscape:cy="25.447658"
     inkscape:document-units="mm"
     inkscape:current-layer="layer1"
     showgrid="false"
     inkscape:window-width="1920"
     inkscape:window-height="980"
     inkscape:window-x="0"
     inkscape:window-y="27"
     inkscape:window-maximized="1" />
  <metadata
     id="metadata1709">
    <rdf:RDF>
      <cc:Work
         rdf:about="">
        <dc:format>image/svg+xml</dc:format>
        <dc:type
           rdf:resource="http://purl.org/dc/dcmitype/StillImage" />
        <dc:title></dc:title>
      </cc:Work>
    </rdf:RDF>
  </metadata>
  <g
     inkscape:label="Layer 1"
     inkscape:groupmode="layer"
     id="layer1"
     transform="translate(178.23467,-177.46467)">
    <g
       transform="matrix(0.46944565,0,0,0.46944565,-69.58264,114.49372)"
       id="g1054">
      <path
         d="m -227.11196,140.30553 q -0.0317,0.0635 -0.0423,0.34925 -0.0106,0.27517 -0.0106,0.70908 0.0106,0.42334 0.0318,0.97367 0.0212,0.53975 0.0635,1.13242 0.0423,0.59266 0.10583,1.21708 0.0741,0.61383 0.16934,1.17475 0.0953,-0.762 0.15875,-1.53458 0.0741,-0.78317 0.20108,-1.54517 0.127,-0.762 0.33867,-1.50283 0.22225,-0.74084 0.61383,-1.43934 0.10583,-0.1905 0.35983,-0.26458 0.26459,-0.0741 0.51859,-0.0318 0.254,0.0318 0.41275,0.20108 0.16933,0.15875 0.0847,0.4445 -0.52916,0.91017 -0.86783,1.92617 -0.32808,1.00542 -0.56092,2.05317 -0.23283,1.04775 -0.40216,2.11666 -0.16934,1.05834 -0.37042,2.08492 -0.0847,0.41275 -0.254,0.68792 -0.16933,0.26458 -0.381,0.32808 -0.21167,0.0529 -0.45508,-0.127 -0.24342,-0.1905 -0.46567,-0.68792 -0.17992,-0.41275 -0.32808,-0.96308 -0.14817,-0.56092 -0.26459,-1.19592 -0.11641,-0.635 -0.20108,-1.32291 -0.0847,-0.68792 -0.14817,-1.35467 -0.0741,0.6985 -0.14816,1.40758 -0.0635,0.70909 -0.1905,1.397 -0.127,0.68792 -0.33867,1.35467 -0.21167,0.66675 -0.56092,1.29117 -0.0952,0.1905 -0.35983,0.26458 -0.254,0.0741 -0.508,0.0318 -0.254,-0.0423 -0.42333,-0.20108 -0.16934,-0.16934 -0.0847,-0.45509 0.40217,-0.68791 0.65617,-1.43933 0.254,-0.75142 0.42333,-1.524 0.17992,-0.78317 0.30692,-1.57692 0.127,-0.79375 0.26458,-1.56633 0.14817,-0.77258 0.33867,-1.51342 0.1905,-0.75141 0.49741,-1.42875 h 0.0106 q 0.11641,-0.1905 0.43391,-0.23283 0.32809,-0.0529 0.65617,0.0212 0.32808,0.0741 0.56092,0.26458 0.23283,0.1905 0.15875,0.47625 z"
         style="font-style:normal;font-variant:normal;font-weight:normal;font-stretch:normal;font-size:medium;line-height:1.25;font-family:'Megan Personal Use';-inkscape-font-specification:'Megan Personal Use';letter-spacing:0px;word-spacing:0px;fill:#000000;fill-opacity:1;stroke:none;stroke-width:0.26458332"
         id="path823"
         inkscape:connector-curvature="0" />
      <path
         d="m -220.23412,146.94128 q -0.14817,0.39158 -0.3175,0.8255 -0.16933,0.43392 -0.39158,0.79375 -0.22225,0.35983 -0.52917,0.60325 -0.30692,0.23283 -0.74083,0.23283 -0.3175,-0.0106 -0.508,-0.17991 -0.17992,-0.17992 -0.26459,-0.48684 -0.22225,0.33867 -0.56091,0.51859 -0.32809,0.17991 -0.65617,0.13758 -0.32808,-0.0529 -0.60325,-0.381 -0.27517,-0.32808 -0.381,-1.016 -0.0953,-0.60325 -0.0106,-1.32292 0.0741,-0.71966 0.29633,-1.38641 0.21167,-0.67734 0.55033,-1.22767 0.33867,-0.55033 0.77259,-0.81492 0.16933,-0.11641 0.41275,-0.13758 0.254,-0.0212 0.49741,0.0635 0.24342,0.0741 0.4445,0.26458 0.21167,0.17992 0.3175,0.46567 0.16934,0.10583 0.34925,0.254 0.1905,0.13758 0.32809,0.27517 0.14816,0.13758 0.21166,0.254 0.0741,0.11641 0.0106,0.16933 -0.14817,0.11642 -0.23284,0.28575 -0.0741,0.15875 -0.13758,0.39158 -0.0635,0.23284 -0.11642,0.53975 -0.0529,0.30692 -0.13758,0.6985 -0.0952,0.48684 -0.0847,0.74084 0.0106,0.254 0.0952,0.30691 0.0847,0.0423 0.22225,-0.0952 0.13759,-0.14816 0.29634,-0.46566 l 0.32808,-0.73025 q 0.0847,-0.15875 0.20108,-0.16934 0.11642,-0.0212 0.20109,0.0529 0.0952,0.0635 0.13758,0.21167 0.0529,0.14816 0,0.32808 z m -3.85233,0.56092 q 0.0318,0.48683 0.16933,0.59266 0.14817,0.10584 0.32808,-0.0318 0.17992,-0.13758 0.34925,-0.4445 0.16934,-0.30691 0.254,-0.64558 0.0741,-0.52917 0.1905,-1.05833 0.11642,-0.52917 0.20109,-1.02659 -0.0212,-0.0423 -0.0212,-0.0953 -0.0423,-0.4445 -0.16933,-0.52916 -0.127,-0.0847 -0.30692,0.0952 -0.16933,0.16933 -0.35983,0.53975 -0.17992,0.37041 -0.33867,0.8255 -0.14817,0.4445 -0.24342,0.92075 -0.0847,0.47625 -0.0529,0.85725 z"
         style="font-style:normal;font-variant:normal;font-weight:normal;font-stretch:normal;font-size:medium;line-height:1.25;font-family:'Megan Personal Use';-inkscape-font-specification:'Megan Personal Use';letter-spacing:0px;word-spacing:0px;fill:#000000;fill-opacity:1;stroke:none;stroke-width:0.26458332"
         id="path825"
         inkscape:connector-curvature="0" />
      <path
         d="m -217.95705,143.23711 q 0.1905,-0.0953 0.34925,-0.0529 0.15875,0.0318 0.27517,0.15875 0.127,0.127 0.21166,0.33866 0.0847,0.21167 0.14817,0.46567 0.10583,0.49742 0.0106,1.0795 -0.0952,0.5715 -0.33866,1.143 -0.23284,0.56092 -0.58209,1.0795 -0.34925,0.51858 -0.74083,0.91017 l -0.0847,0.0847 q 0.3175,0.16934 0.52917,0.47625 0.51858,-0.42333 0.92075,-0.94191 0.40217,-0.52917 0.75142,-1.30175 0.10583,-0.23284 0.24341,-0.29634 0.13759,-0.0741 0.24342,-0.0106 0.10583,0.0529 0.14817,0.22225 0.0423,0.15875 -0.0318,0.381 -0.15875,0.4445 -0.30692,0.80433 -0.14817,0.35984 -0.35983,0.6985 -0.20109,0.32809 -0.49742,0.65617 -0.28575,0.32808 -0.73025,0.6985 0.11642,0.61383 0,1.30175 -0.10583,0.68792 -0.39158,1.28058 -0.28575,0.60325 -0.70909,1.00542 -0.42333,0.40217 -0.92075,0.4445 -0.39158,0.0317 -0.73025,-0.1905 -0.34925,-0.22225 -0.5715,-0.59267 -0.22225,-0.37041 -0.27516,-0.84666 -0.0635,-0.47625 0.11641,-0.9525 0.10584,-0.30692 0.33867,-0.55034 0.22225,-0.24341 0.508,-0.45508 0.28575,-0.20108 0.61383,-0.381 0.33867,-0.16933 0.65617,-0.34925 -0.0741,-0.1905 -0.17992,-0.28575 -0.10583,-0.0952 -0.24341,-0.127 -0.127,-0.0318 -0.27517,-0.0212 -0.13758,0 -0.28575,0 -0.127,-0.0212 -0.1905,-0.20108 -0.0635,-0.1905 -0.0635,-0.41275 0,-0.23283 0.0635,-0.43392 0.0529,-0.20108 0.16933,-0.26458 0.0952,-0.0423 0.17992,-0.0741 0.0847,-0.0423 0.15875,-0.0847 0.0847,-0.0529 0.17992,-0.11642 0.0953,-0.0741 0.22225,-0.20108 0.33866,-0.32808 0.60325,-0.79375 0.27516,-0.46567 0.4445,-0.84667 0.0847,-0.20108 0.13758,-0.35983 0.0635,-0.15875 0.0741,-0.254 0.0212,-0.0952 -0.0212,-0.11642 -0.0423,-0.0212 -0.14817,0.0529 -0.28575,0.1905 -0.61383,0.23283 -0.32809,0.0318 -0.65617,-0.0847 -0.17992,0.635 -0.40217,1.22766 -0.22225,0.58209 -0.41275,1.0795 -0.0635,0.14817 -0.17991,0.15875 -0.11642,0 -0.21167,-0.0741 -0.10583,-0.0847 -0.15875,-0.22225 -0.0635,-0.14817 -0.0212,-0.30692 0.24342,-0.51858 0.46567,-1.04775 0.22225,-0.53975 0.40217,-1.11125 -0.17992,-0.21166 -0.17992,-0.508 0,-0.30691 0.10583,-0.59266 0.10584,-0.29634 0.26459,-0.51859 0.16933,-0.22225 0.3175,-0.28575 0.14816,-0.0635 0.24341,0.0953 0.0953,0.15875 0.0529,0.635 l -0.0106,0.0529 q 0.15875,0.0106 0.33866,-0.0318 0.17992,-0.0529 0.35984,-0.127 0.1905,-0.0847 0.35983,-0.17992 0.16933,-0.0953 0.3175,-0.15875 z m -1.4605,8.1915 q 0.0317,-0.0635 0.0741,-0.20108 0.0529,-0.127 0.10584,-0.29633 l -0.45509,0.30691 q -0.32808,0.23284 -0.48683,0.4445 -0.16933,0.22225 -0.20108,0.381 -0.0318,0.15875 0.0423,0.23284 0.0741,0.0741 0.22225,0.0106 0.13758,-0.0529 0.3175,-0.26458 0.1905,-0.21167 0.381,-0.61384 z"
         style="font-style:normal;font-variant:normal;font-weight:normal;font-stretch:normal;font-size:medium;line-height:1.25;font-family:'Megan Personal Use';-inkscape-font-specification:'Megan Personal Use';letter-spacing:0px;word-spacing:0px;fill:#000000;fill-opacity:1;stroke:none;stroke-width:0.26458332"
         id="path827"
         inkscape:connector-curvature="0" />
      <path
         d="m -213.78556,146.96245 q -0.15875,0.35983 -0.30692,0.79375 -0.13758,0.42333 -0.33867,0.79375 -0.20108,0.35983 -0.47625,0.61383 -0.27516,0.24342 -0.68791,0.24342 -0.51859,-0.0106 -0.74084,-0.37042 -0.22225,-0.35983 -0.254,-0.91017 -0.0423,-0.55033 0.0635,-1.21708 0.10584,-0.67733 0.254,-1.31233 0.13759,-0.64559 0.27517,-1.17475 0.13758,-0.53975 0.16933,-0.81492 0.0529,-0.15875 0.27517,-0.0741 0.23283,0.0741 0.47625,0.254 0.24342,0.17991 0.41275,0.41275 0.16933,0.23283 0.0952,0.39158 -0.15875,0.37042 -0.28575,0.93133 -0.127,0.56092 -0.21167,1.10067 -0.0529,0.33867 -0.0953,0.66675 -0.0317,0.32808 -0.0106,0.49742 0.0317,0.15875 0.13758,0.0741 0.11642,-0.0847 0.35984,-0.56092 0.0847,-0.16933 0.15875,-0.32808 0.0741,-0.16933 0.1905,-0.43392 0.0847,-0.17991 0.20108,-0.20108 0.11642,-0.0317 0.21167,0.0529 0.0953,0.0741 0.13758,0.23283 0.0423,0.14817 -0.0106,0.33867 z m -1.88384,-4.26509 q -0.0529,-0.30691 0.11642,-0.508 0.17992,-0.20108 0.48683,-0.20108 0.30692,0 0.53975,0.20108 0.23284,0.20109 0.28575,0.508 0.0529,0.30692 -0.127,0.508 -0.16933,0.1905 -0.47625,0.1905 -0.30691,0 -0.53975,-0.1905 -0.23283,-0.20108 -0.28575,-0.508 z"
         style="font-style:normal;font-variant:normal;font-weight:normal;font-stretch:normal;font-size:medium;line-height:1.25;font-family:'Megan Personal Use';-inkscape-font-specification:'Megan Personal Use';letter-spacing:0px;word-spacing:0px;fill:#000000;fill-opacity:1;stroke:none;stroke-width:0.26458332"
         id="path829"
         inkscape:connector-curvature="0" />
      <path
         d="m -210.17433,141.45911 q -0.0212,0.96309 -0.254,1.88384 -0.22225,0.91016 -0.62442,1.67216 -0.39158,0.762 -0.93133,1.31234 -0.53975,0.53975 -1.17475,0.762 -0.0423,0.37041 -0.0953,0.6985 -0.0423,0.3175 -0.0847,0.62441 0.47625,-0.0741 0.84667,-0.1905 0.381,-0.11641 0.68792,-0.32808 0.30691,-0.21167 0.5715,-0.53975 0.27516,-0.33867 0.53975,-0.86783 0.0741,-0.10584 0.16933,-0.10584 0.0952,0 0.17992,0.0635 0.0847,0.0635 0.13758,0.1905 0.0529,0.11642 0.0212,0.254 -0.11642,0.37042 -0.30692,0.73025 -0.1905,0.34925 -0.48683,0.67734 -0.29634,0.3175 -0.70909,0.58208 -0.41275,0.26458 -0.96308,0.43392 0.26458,0.41275 0.32808,0.86783 0.0741,0.45508 0,0.889 -0.0741,0.4445 -0.26458,0.83608 -0.17992,0.39159 -0.43392,0.66675 -0.24341,0.27517 -0.51858,0.40217 -0.27517,0.13758 -0.51858,0.0635 -0.254,-0.0741 -0.4445,-0.39158 -0.20109,-0.3175 -0.28575,-0.93134 -0.10584,-0.67733 -0.0635,-1.651 0.0317,-0.97366 0.20108,-2.07433 0.15875,-1.11125 0.42333,-2.27542 0.26459,-1.16416 0.60325,-2.2225 0.33867,-1.06891 0.73025,-1.94733 0.39159,-0.87842 0.81492,-1.41817 0.27517,-0.34925 0.60325,-0.32808 0.33867,0.0106 0.62442,0.24342 0.28575,0.23283 0.47625,0.62441 0.20108,0.39159 0.20108,0.79375 z m -1.3335,0.61384 q -0.1905,0.34925 -0.381,0.79375 -0.17992,0.43391 -0.35983,0.91016 -0.16934,0.47625 -0.3175,0.96309 -0.14817,0.47625 -0.27517,0.91016 0.40217,-0.34925 0.73025,-0.87841 0.33867,-0.53975 0.5715,-1.09009 0.24342,-0.56091 0.37042,-1.05833 0.13758,-0.508 0.14816,-0.78317 0.0106,-0.28575 -0.10583,-0.26458 -0.11642,0.0106 -0.381,0.49742 z m -1.92617,7.06966 q -0.0529,0.39159 -0.0847,0.80434 -0.0317,0.42333 -0.0529,0.93133 -0.0317,0.53975 0.0106,0.70908 0.0423,0.17992 0.11642,0.0952 0.0847,-0.0847 0.15875,-0.35983 0.0847,-0.27517 0.11642,-0.635 0.0317,-0.35983 -0.0106,-0.74083 -0.0317,-0.381 -0.1905,-0.67734 z"
         style="font-style:normal;font-variant:normal;font-weight:normal;font-stretch:normal;font-size:medium;line-height:1.25;font-family:'Megan Personal Use';-inkscape-font-specification:'Megan Personal Use';letter-spacing:0px;word-spacing:0px;fill:#000000;fill-opacity:1;stroke:none;stroke-width:0.26458332"
         id="path831"
         inkscape:connector-curvature="0" />
      <path
         d="m -205.82673,146.94128 q -0.14817,0.39158 -0.3175,0.8255 -0.16933,0.43392 -0.39158,0.79375 -0.22225,0.35983 -0.52917,0.60325 -0.30692,0.23283 -0.74083,0.23283 -0.3175,-0.0106 -0.508,-0.17991 -0.17992,-0.17992 -0.26459,-0.48684 -0.22225,0.33867 -0.56091,0.51859 -0.32809,0.17991 -0.65617,0.13758 -0.32808,-0.0529 -0.60325,-0.381 -0.27517,-0.32808 -0.381,-1.016 -0.0952,-0.60325 -0.0106,-1.32292 0.0741,-0.71966 0.29633,-1.38641 0.21167,-0.67734 0.55033,-1.22767 0.33867,-0.55033 0.77259,-0.81492 0.16933,-0.11641 0.41275,-0.13758 0.254,-0.0212 0.49741,0.0635 0.24342,0.0741 0.4445,0.26458 0.21167,0.17992 0.3175,0.46567 0.16934,0.10583 0.34925,0.254 0.1905,0.13758 0.32809,0.27517 0.14816,0.13758 0.21166,0.254 0.0741,0.11641 0.0106,0.16933 -0.14817,0.11642 -0.23284,0.28575 -0.0741,0.15875 -0.13758,0.39158 -0.0635,0.23284 -0.11642,0.53975 -0.0529,0.30692 -0.13758,0.6985 -0.0952,0.48684 -0.0847,0.74084 0.0106,0.254 0.0952,0.30691 0.0847,0.0423 0.22225,-0.0952 0.13759,-0.14816 0.29634,-0.46566 l 0.32808,-0.73025 q 0.0847,-0.15875 0.20108,-0.16934 0.11642,-0.0212 0.20109,0.0529 0.0953,0.0635 0.13758,0.21167 0.0529,0.14816 0,0.32808 z m -3.85233,0.56092 q 0.0317,0.48683 0.16933,0.59266 0.14817,0.10584 0.32808,-0.0318 0.17992,-0.13758 0.34925,-0.4445 0.16934,-0.30691 0.254,-0.64558 0.0741,-0.52917 0.1905,-1.05833 0.11642,-0.52917 0.20109,-1.02659 -0.0212,-0.0423 -0.0212,-0.0953 -0.0423,-0.4445 -0.16933,-0.52916 -0.127,-0.0847 -0.30692,0.0952 -0.16933,0.16933 -0.35983,0.53975 -0.17992,0.37041 -0.33867,0.8255 -0.14817,0.4445 -0.24342,0.92075 -0.0847,0.47625 -0.0529,0.85725 z"
         style="font-style:normal;font-variant:normal;font-weight:normal;font-stretch:normal;font-size:medium;line-height:1.25;font-family:'Megan Personal Use';-inkscape-font-specification:'Megan Personal Use';letter-spacing:0px;word-spacing:0px;fill:#000000;fill-opacity:1;stroke:none;stroke-width:0.26458332"
         id="path833"
         inkscape:connector-curvature="0" />
      <path
         d="m -203.58164,142.50686 q -0.0635,0.13759 -0.23283,0.11642 -0.16933,-0.0318 -0.381,-0.15875 -0.21167,-0.127 -0.42333,-0.32808 -0.21167,-0.20109 -0.34925,-0.42334 -0.14817,-0.22225 -0.1905,-0.43391 -0.0423,-0.22225 0.0952,-0.381 0.35983,-0.4445 0.84666,-0.73025 0.48684,-0.28575 0.97367,-0.45509 0.49742,-0.16933 0.9525,-0.23283 0.45508,-0.0635 0.75142,-0.0635 0.30691,0 0.67733,0.0635 0.37042,0.0635 0.75142,0.22225 0.39158,0.14817 0.75141,0.39158 0.37042,0.24342 0.65617,0.60325 0.29633,0.35984 0.47625,0.83609 0.1905,0.47625 0.21167,1.09008 0,0.5715 -0.15875,1.13242 -0.14817,0.55033 -0.43392,1.05833 -0.27517,0.49742 -0.67733,0.92075 -0.39159,0.42333 -0.87842,0.73025 0.1905,0.40217 0.381,0.73025 0.20108,0.3175 0.42333,0.508 0.22225,0.1905 0.47625,0.21167 0.254,0.0106 0.56092,-0.21167 0.15875,-0.13758 0.27517,-0.27517 0.11641,-0.13758 0.21166,-0.28575 0.10584,-0.14816 0.20109,-0.32808 0.0953,-0.17992 0.21166,-0.40217 0.0741,-0.127 0.16934,-0.11641 0.10583,0 0.17991,0.0952 0.0847,0.0953 0.127,0.254 0.0423,0.14816 -0.0106,0.30691 -0.13758,0.40217 -0.30692,0.81492 -0.15875,0.41275 -0.381,0.77258 -0.22225,0.34925 -0.51858,0.61384 -0.29633,0.254 -0.68792,0.32808 -0.5715,0.0952 -0.98425,-0.13758 -0.41275,-0.24342 -0.70908,-0.64559 -0.28575,-0.40216 -0.48683,-0.87841 -0.1905,-0.47625 -0.32809,-0.86784 -0.16933,0.0212 -0.34925,0.0529 -0.16933,0.0318 -0.34925,0.0318 l -0.5715,2.44475 q -0.0317,0.127 -0.254,0.0635 -0.21166,-0.0635 -0.45508,-0.22225 -0.24342,-0.16933 -0.4445,-0.381 -0.1905,-0.21167 -0.16933,-0.35983 0.0423,-0.33867 0.127,-0.83609 0.0847,-0.49741 0.1905,-1.09008 0.10583,-0.59267 0.23283,-1.23825 0.13758,-0.65617 0.27517,-1.30175 0.13758,-0.65617 0.26458,-1.27 0.127,-0.61383 0.24342,-1.143 0,-0.0847 0.13758,-0.127 0.14817,-0.0423 0.34925,-0.0423 0.21167,0 0.45508,0.0318 0.24342,0.0212 0.4445,0.0741 0.21167,0.0529 0.33867,0.13758 0.13758,0.0741 0.127,0.15875 -0.254,0.87842 -0.508,1.88384 -0.254,1.00541 -0.49742,2.01083 0.41275,-0.16933 0.81492,-0.45508 0.40217,-0.28575 0.6985,-0.70909 0.30692,-0.42333 0.46567,-1.00541 0.16933,-0.58209 0.127,-1.36525 -0.0212,-0.3175 -0.10584,-0.60325 -0.0741,-0.28575 -0.22225,-0.508 -0.14816,-0.22225 -0.37041,-0.37042 -0.22225,-0.15875 -0.52917,-0.21167 -0.33867,-0.0529 -0.70908,0.0741 -0.35984,0.11641 -0.71967,0.37041 -0.35983,0.254 -0.68792,0.635 -0.3175,0.37042 -0.5715,0.8255 z"
         style="font-style:normal;font-variant:normal;font-weight:normal;font-stretch:normal;font-size:medium;line-height:1.25;font-family:'Megan Personal Use';-inkscape-font-specification:'Megan Personal Use';letter-spacing:0px;word-spacing:0px;fill:#d40000;fill-opacity:1;stroke:none;stroke-width:0.26458332"
         id="path835"
         inkscape:connector-curvature="0" />
      <path
         d="m -194.17851,143.48053 q 0.41275,0.39158 0.508,1.02658 0.0953,0.61384 -0.11642,1.13242 -0.21167,0.51858 -0.60325,0.889 -0.381,0.37042 -0.86783,0.56092 -0.48684,0.1905 -0.93134,0.13758 0.0106,0.508 0.17992,0.762 0.16933,0.24342 0.43392,0.28575 0.26458,0.0318 0.58208,-0.10583 0.32808,-0.14817 0.635,-0.41275 0.30692,-0.27517 0.5715,-0.635 0.26458,-0.37042 0.41275,-0.79375 0.0741,-0.15875 0.17992,-0.15875 0.10583,-0.0106 0.1905,0.0952 0.0847,0.10583 0.11641,0.29633 0.0317,0.17992 -0.0317,0.381 -0.20108,0.56092 -0.46566,1.02658 -0.26459,0.46567 -0.61384,0.79375 -0.33866,0.32809 -0.77258,0.508 -0.43392,0.17992 -0.97367,0.17992 -0.78316,-0.0318 -1.24883,-0.65617 -0.46567,-0.62441 -0.508,-1.89441 0,-0.59267 0.127,-1.17475 0.127,-0.59267 0.35983,-1.10067 0.23284,-0.508 0.53975,-0.889 0.3175,-0.381 0.68792,-0.56092 0.37042,-0.17991 0.77258,-0.11641 0.41275,0.0529 0.83609,0.42333 z m -0.53975,1.524 q 0.11641,-0.37042 0.0847,-0.60325 -0.0317,-0.24342 -0.14816,-0.3175 -0.11642,-0.0847 -0.30692,0 -0.17992,0.0847 -0.381,0.35983 -0.1905,0.27517 -0.37042,0.74084 -0.16933,0.46566 -0.26458,1.143 0.28575,-0.0423 0.52917,-0.22225 0.24341,-0.17992 0.42333,-0.39159 0.17992,-0.22225 0.29633,-0.42333 0.11642,-0.20108 0.13759,-0.28575 z"
         style="font-style:normal;font-variant:normal;font-weight:normal;font-stretch:normal;font-size:medium;line-height:1.25;font-family:'Megan Personal Use';-inkscape-font-specification:'Megan Personal Use';letter-spacing:0px;word-spacing:0px;fill:#d40000;fill-opacity:1;stroke:none;stroke-width:0.26458332"
         id="path837"
         inkscape:connector-curvature="0" />
      <path
         d="m -193.17458,147.52336 q -0.0741,0.127 -0.15875,0.10584 -0.0953,-0.0212 -0.15875,-0.13759 -0.0741,-0.11641 -0.10584,-0.28575 -0.0318,-0.16933 0.0106,-0.32808 0.15875,-0.37042 0.28575,-0.68792 0.11641,-0.3175 0.23283,-0.61383 0.10583,-0.30692 0.21167,-0.60325 0.10583,-0.29633 0.23283,-0.61383 -0.0318,-0.46567 0.11642,-0.85725 0.14816,-0.40217 0.35983,-0.635 0.21167,-0.23284 0.43392,-0.24342 0.23283,-0.0106 0.34925,0.28575 0.0847,0.21167 -0.0106,0.40217 -0.0847,0.1905 -0.23283,0.41275 -0.0423,0.11641 -0.0423,0.27516 0.0106,0.14817 0.0952,0.35984 0.43391,0.96308 0.73025,1.75683 0.30691,0.78317 0.381,1.41817 0.16933,-0.16934 0.32808,-0.42334 0.15875,-0.254 0.30692,-0.62441 0.0635,-0.127 0.15875,-0.13759 0.10583,-0.0212 0.1905,0.0529 0.0953,0.0635 0.15875,0.1905 0.0635,0.127 0.0423,0.27517 -0.30692,0.85725 -0.66675,1.32291 -0.35983,0.45509 -0.75142,0.64559 -0.0847,0.16933 -0.29633,0.32808 -0.20108,0.15875 -0.47625,0.27517 -0.26458,0.11641 -0.56092,0.15875 -0.29633,0.0529 -0.58208,0.0212 -0.27517,-0.0318 -0.49742,-0.16933 -0.23283,-0.13758 -0.34925,-0.41275 -0.11641,-0.26458 -0.0953,-0.48683 0.0106,-0.22225 0.0953,-0.39159 0.0847,-0.16933 0.22225,-0.26458 0.127,-0.0952 0.24342,-0.0952 0.29633,0 0.58208,0.10583 0.29634,0.0952 0.59267,0.11642 0.0529,-0.17992 0.0106,-0.42333 -0.0423,-0.254 -0.13758,-0.56092 -0.0952,-0.3175 -0.22225,-0.68792 -0.11642,-0.37041 -0.23283,-0.80433 -0.21167,0.59267 -0.39159,1.0795 -0.17991,0.48683 -0.40216,0.89958 z"
         style="font-style:normal;font-variant:normal;font-weight:normal;font-stretch:normal;font-size:medium;line-height:1.25;font-family:'Megan Personal Use';-inkscape-font-specification:'Megan Personal Use';letter-spacing:0px;word-spacing:0px;fill:#d40000;fill-opacity:1;stroke:none;stroke-width:0.26458332"
         id="path839"
         inkscape:connector-curvature="0" />
      <path
         d="m -187.17598,146.96245 q -0.15875,0.35983 -0.30692,0.79375 -0.13758,0.42333 -0.33867,0.79375 -0.20108,0.35983 -0.47625,0.61383 -0.27516,0.24342 -0.68791,0.24342 -0.51859,-0.0106 -0.74084,-0.37042 -0.22225,-0.35983 -0.254,-0.91017 -0.0423,-0.55033 0.0635,-1.21708 0.10584,-0.67733 0.254,-1.31233 0.13759,-0.64559 0.27517,-1.17475 0.13758,-0.53975 0.16933,-0.81492 0.0529,-0.15875 0.27517,-0.0741 0.23283,0.0741 0.47625,0.254 0.24342,0.17991 0.41275,0.41275 0.16933,0.23283 0.0952,0.39158 -0.15875,0.37042 -0.28575,0.93133 -0.127,0.56092 -0.21167,1.10067 -0.0529,0.33867 -0.0952,0.66675 -0.0318,0.32808 -0.0106,0.49742 0.0317,0.15875 0.13758,0.0741 0.11642,-0.0847 0.35984,-0.56092 0.0847,-0.16933 0.15875,-0.32808 0.0741,-0.16933 0.1905,-0.43392 0.0847,-0.17991 0.20108,-0.20108 0.11642,-0.0317 0.21167,0.0529 0.0952,0.0741 0.13758,0.23283 0.0423,0.14817 -0.0106,0.33867 z m -1.88384,-4.26509 q -0.0529,-0.30691 0.11642,-0.508 0.17992,-0.20108 0.48683,-0.20108 0.30692,0 0.53975,0.20108 0.23284,0.20109 0.28575,0.508 0.0529,0.30692 -0.127,0.508 -0.16933,0.1905 -0.47625,0.1905 -0.30691,0 -0.53975,-0.1905 -0.23283,-0.20108 -0.28575,-0.508 z"
         style="font-style:normal;font-variant:normal;font-weight:normal;font-stretch:normal;font-size:medium;line-height:1.25;font-family:'Megan Personal Use';-inkscape-font-specification:'Megan Personal Use';letter-spacing:0px;word-spacing:0px;fill:#d40000;fill-opacity:1;stroke:none;stroke-width:0.26458332"
         id="path841"
         inkscape:connector-curvature="0" />
      <path
         d="m -182.8345,146.94128 q -0.14817,0.37042 -0.29633,0.80433 -0.13759,0.42334 -0.34925,0.80434 -0.20109,0.37041 -0.49742,0.62441 -0.28575,0.24342 -0.71967,0.24342 -0.35983,-0.0212 -0.5715,-0.1905 -0.21166,-0.17992 -0.3175,-0.47625 -0.24341,0.34925 -0.59266,0.52917 -0.33867,0.16933 -0.66675,0.11641 -0.32809,-0.0635 -0.59267,-0.39158 -0.26458,-0.33867 -0.34925,-1.016 -0.0847,-0.60325 0,-1.32292 0.0741,-0.71966 0.28575,-1.38641 0.21167,-0.67734 0.55033,-1.22767 0.33867,-0.55033 0.77259,-0.81492 0.127,-0.0741 0.28575,-0.10583 0.16933,-0.0317 0.33866,-0.0106 0.17992,0.0106 0.34925,0.0847 0.17992,0.0635 0.32809,0.17992 0.0953,-0.39158 0.16933,-0.762 0.0847,-0.37042 0.14817,-0.66675 0.0635,-0.30692 0.0953,-0.52917 0.0423,-0.22225 0.0423,-0.32808 0.0317,-0.10583 0.16933,-0.0952 0.13759,0.0106 0.30692,0.0952 0.17992,0.0847 0.35983,0.22225 0.1905,0.13758 0.32809,0.29633 0.14816,0.14817 0.22225,0.29634 0.0741,0.13758 0.0106,0.22225 -0.0741,0.10583 -0.17992,0.42333 -0.10583,0.30692 -0.22225,0.73025 -0.11641,0.42333 -0.24341,0.92075 -0.11642,0.49742 -0.22225,0.98425 -0.10584,0.47625 -0.20109,0.889 -0.0847,0.41275 -0.13758,0.67733 -0.0952,0.48684 -0.0847,0.74084 0.0106,0.254 0.0952,0.30691 0.0847,0.0423 0.22225,-0.0952 0.13759,-0.14816 0.29634,-0.46566 l 0.32808,-0.73025 q 0.0847,-0.15875 0.20108,-0.16934 0.11642,-0.0212 0.20109,0.0529 0.0952,0.0635 0.13758,0.21167 0.0529,0.14816 0,0.32808 z m -3.85233,0.56092 q 0.0317,0.49741 0.16933,0.60325 0.13758,0.10583 0.30692,-0.0317 0.16933,-0.14817 0.32808,-0.45509 0.15875,-0.3175 0.22225,-0.65616 0.0847,-0.52917 0.1905,-1.04775 0.11642,-0.51859 0.26458,-1.09009 l -0.0106,-0.0318 q -0.0423,-0.4445 -0.16933,-0.52916 -0.127,-0.0847 -0.30692,0.0952 -0.16933,0.16933 -0.35983,0.53975 -0.17992,0.37041 -0.33867,0.8255 -0.14817,0.4445 -0.24342,0.92075 -0.0847,0.47625 -0.0529,0.85725 z"
         style="font-style:normal;font-variant:normal;font-weight:normal;font-stretch:normal;font-size:medium;line-height:1.25;font-family:'Megan Personal Use';-inkscape-font-specification:'Megan Personal Use';letter-spacing:0px;word-spacing:0px;fill:#d40000;fill-opacity:1;stroke:none;stroke-width:0.26458332"
         id="path843"
         inkscape:connector-curvature="0" />
      <path
         d="m -180.08118,143.48053 q 0.41275,0.39158 0.508,1.02658 0.0953,0.61384 -0.11642,1.13242 -0.21166,0.51858 -0.60325,0.889 -0.381,0.37042 -0.86783,0.56092 -0.48683,0.1905 -0.93133,0.13758 0.0106,0.508 0.17991,0.762 0.16934,0.24342 0.43392,0.28575 0.26458,0.0318 0.58208,-0.10583 0.32809,-0.14817 0.635,-0.41275 0.30692,-0.27517 0.5715,-0.635 0.26459,-0.37042 0.41275,-0.79375 0.0741,-0.15875 0.17992,-0.15875 0.10583,-0.0106 0.1905,0.0952 0.0847,0.10583 0.11642,0.29633 0.0317,0.17992 -0.0318,0.381 -0.20109,0.56092 -0.46567,1.02658 -0.26458,0.46567 -0.61383,0.79375 -0.33867,0.32809 -0.77259,0.508 -0.43391,0.17992 -0.97366,0.17992 -0.78317,-0.0318 -1.24884,-0.65617 -0.46566,-0.62441 -0.508,-1.89441 0,-0.59267 0.127,-1.17475 0.127,-0.59267 0.35984,-1.10067 0.23283,-0.508 0.53975,-0.889 0.3175,-0.381 0.68791,-0.56092 0.37042,-0.17991 0.77259,-0.11641 0.41275,0.0529 0.83608,0.42333 z m -0.53975,1.524 q 0.11642,-0.37042 0.0847,-0.60325 -0.0317,-0.24342 -0.14817,-0.3175 -0.11642,-0.0847 -0.30692,0 -0.17991,0.0847 -0.381,0.35983 -0.1905,0.27517 -0.37041,0.74084 -0.16934,0.46566 -0.26459,1.143 0.28575,-0.0423 0.52917,-0.22225 0.24342,-0.17992 0.42333,-0.39159 0.17992,-0.22225 0.29634,-0.42333 0.11641,-0.20108 0.13758,-0.28575 z"
         style="font-style:normal;font-variant:normal;font-weight:normal;font-stretch:normal;font-size:medium;line-height:1.25;font-family:'Megan Personal Use';-inkscape-font-specification:'Megan Personal Use';letter-spacing:0px;word-spacing:0px;fill:#d40000;fill-opacity:1;stroke:none;stroke-width:0.26458332"
         id="path845"
         inkscape:connector-curvature="0" />
      <path
         d="m -178.77034,143.19478 q 0.0529,-0.15875 0.24342,-0.10583 0.20108,0.0529 0.41275,0.21166 0.22225,0.15875 0.381,0.381 0.16933,0.22225 0.14817,0.39159 l -0.17992,0.79375 q 0.15875,-0.28575 0.32808,-0.58209 0.17992,-0.30691 0.39159,-0.55033 0.21166,-0.254 0.45508,-0.41275 0.254,-0.16933 0.55033,-0.1905 0.22225,0.0212 0.42334,0.16933 0.21166,0.13759 0.33866,0.381 0.13759,0.24342 0.16934,0.59267 0.0317,0.34925 -0.10584,0.79375 -0.0635,0.21167 -0.1905,0.60325 -0.11641,0.381 -0.23283,0.80433 -0.11642,0.42334 -0.20108,0.81492 -0.0847,0.381 -0.0847,0.59267 0,0.21166 0.11642,0.17991 0.11641,-0.0423 0.40216,-0.47625 0.17992,-0.26458 0.30692,-0.55033 0.127,-0.29633 0.24342,-0.51858 0.0635,-0.14817 0.15875,-0.17992 0.10583,-0.0317 0.20108,0.0212 0.0952,0.0529 0.15875,0.17991 0.0635,0.11642 0.0423,0.28575 -0.127,0.4445 -0.30691,0.92075 -0.16934,0.46567 -0.41275,0.84667 -0.24342,0.381 -0.58209,0.61383 -0.32808,0.23284 -0.78316,0.20109 -0.32809,-0.0212 -0.52917,-0.16934 -0.1905,-0.15875 -0.28575,-0.40216 -0.0847,-0.24342 -0.0847,-0.53975 0,-0.30692 0.0423,-0.60325 0.0423,-0.30692 0.11641,-0.58209 0.0741,-0.28575 0.14817,-0.49741 0.10583,-0.29634 0.20108,-0.62442 0.0953,-0.33867 0.16934,-0.635 0.0741,-0.30692 0.10583,-0.53975 0.0318,-0.24342 -0.0106,-0.34925 -0.0317,-0.11642 -0.14817,-0.0635 -0.11642,0.0529 -0.33867,0.33867 -0.127,0.16933 -0.30691,0.46566 -0.17992,0.29634 -0.35984,0.60325 -0.17991,0.29634 -0.32808,0.55034 -0.14817,0.254 -0.21167,0.34925 -0.127,0.64558 -0.20108,1.28058 -0.0741,0.62442 -0.0529,1.28058 -0.0529,0.127 -0.254,0.16934 -0.20108,0.0423 -0.41275,0 -0.21166,-0.0317 -0.381,-0.127 -0.16933,-0.10584 -0.16933,-0.26459 -0.0635,-0.55033 0.0106,-1.27 0.0741,-0.71966 0.22225,-1.50283 0.13759,-0.78317 0.32809,-1.57692 0.17991,-0.80433 0.33866,-1.50283 z"
         style="font-style:normal;font-variant:normal;font-weight:normal;font-stretch:normal;font-size:medium;line-height:1.25;font-family:'Megan Personal Use';-inkscape-font-specification:'Megan Personal Use';letter-spacing:0px;word-spacing:0px;fill:#d40000;fill-opacity:1;stroke:none;stroke-width:0.26458332"
         id="path847"
         inkscape:connector-curvature="0" />
      <path
         d="m -171.31091,146.25336 q -0.0635,0.10584 -0.27516,0.0952 -0.20109,-0.0106 -0.41275,-0.0847 -0.21167,-0.0847 -0.35984,-0.20109 -0.13758,-0.11641 -0.0847,-0.22225 0.33866,-0.59266 0.41275,-0.99483 0.0847,-0.41275 -0.0106,-0.60325 -0.0953,-0.1905 -0.30691,-0.14817 -0.20109,0.0423 -0.43392,0.34925 -0.23283,0.30692 -0.4445,0.89959 -0.20108,0.58208 -0.28575,1.49225 -0.0529,0.61383 0.0741,0.9525 0.13759,0.32808 0.381,0.43391 0.254,0.0953 0.5715,-0.0106 0.32809,-0.10583 0.64559,-0.35983 0.32808,-0.26459 0.61383,-0.64559 0.28575,-0.39158 0.45508,-0.85725 0.0741,-0.1905 0.17992,-0.20108 0.11642,-0.0106 0.20108,0.0953 0.0953,0.10583 0.127,0.29633 0.0423,0.1905 -0.0317,0.40217 -0.20108,0.56092 -0.46566,1.02658 -0.254,0.46567 -0.60325,0.79375 -0.33867,0.32809 -0.762,0.508 -0.42334,0.17992 -0.96309,0.17992 -0.77258,-0.0318 -1.23825,-0.64558 -0.46566,-0.62442 -0.49741,-1.86267 0,-0.59267 0.127,-1.17475 0.127,-0.59267 0.35983,-1.10067 0.22225,-0.508 0.52917,-0.889 0.3175,-0.381 0.67733,-0.56091 0.37042,-0.17992 0.77258,-0.11642 0.41275,0.0529 0.8255,0.43392 0.28575,0.254 0.42334,0.60325 0.13758,0.34925 0.14816,0.73025 0.0212,0.37041 -0.0741,0.74083 -0.0952,0.35983 -0.27517,0.64558 z"
         style="font-style:normal;font-variant:normal;font-weight:normal;font-stretch:normal;font-size:medium;line-height:1.25;font-family:'Megan Personal Use';-inkscape-font-specification:'Megan Personal Use';letter-spacing:0px;word-spacing:0px;fill:#d40000;fill-opacity:1;stroke:none;stroke-width:0.26458332"
         id="path849"
         inkscape:connector-curvature="0" />
      <path
         d="m -167.53415,143.48053 q 0.41275,0.39158 0.508,1.02658 0.0952,0.61384 -0.11641,1.13242 -0.21167,0.51858 -0.60325,0.889 -0.381,0.37042 -0.86784,0.56092 -0.48683,0.1905 -0.93133,0.13758 0.0106,0.508 0.17992,0.762 0.16933,0.24342 0.43391,0.28575 0.26459,0.0318 0.58209,-0.10583 0.32808,-0.14817 0.635,-0.41275 0.30691,-0.27517 0.5715,-0.635 0.26458,-0.37042 0.41275,-0.79375 0.0741,-0.15875 0.17991,-0.15875 0.10584,-0.0106 0.1905,0.0952 0.0847,0.10583 0.11642,0.29633 0.0317,0.17992 -0.0318,0.381 -0.20108,0.56092 -0.46567,1.02658 -0.26458,0.46567 -0.61383,0.79375 -0.33867,0.32809 -0.77258,0.508 -0.43392,0.17992 -0.97367,0.17992 -0.78317,-0.0318 -1.24883,-0.65617 -0.46567,-0.62441 -0.508,-1.89441 0,-0.59267 0.127,-1.17475 0.127,-0.59267 0.35983,-1.10067 0.23284,-0.508 0.53975,-0.889 0.3175,-0.381 0.68792,-0.56092 0.37041,-0.17991 0.77258,-0.11641 0.41275,0.0529 0.83608,0.42333 z m -0.53975,1.524 q 0.11642,-0.37042 0.0847,-0.60325 -0.0318,-0.24342 -0.14817,-0.3175 -0.11641,-0.0847 -0.30691,0 -0.17992,0.0847 -0.381,0.35983 -0.1905,0.27517 -0.37042,0.74084 -0.16933,0.46566 -0.26458,1.143 0.28575,-0.0423 0.52916,-0.22225 0.24342,-0.17992 0.42334,-0.39159 0.17991,-0.22225 0.29633,-0.42333 0.11642,-0.20108 0.13758,-0.28575 z"
         style="font-style:normal;font-variant:normal;font-weight:normal;font-stretch:normal;font-size:medium;line-height:1.25;font-family:'Megan Personal Use';-inkscape-font-specification:'Megan Personal Use';letter-spacing:0px;word-spacing:0px;fill:#d40000;fill-opacity:1;stroke:none;stroke-width:0.26458332"
         id="path851"
         inkscape:connector-curvature="0" />
      <path
         inkscape:connector-curvature="0"
         id="path1012"
         d="m -159.12584,150.49823 c -0.53828,-0.0771 -0.63073,-0.11314 -0.81257,-0.31668 -0.12555,-0.14052 -0.20519,-0.31102 -0.20519,-0.43929 0,-0.44471 -0.062,-0.46065 -0.44685,-0.11466 -0.44059,0.39612 -0.69155,0.47015 -1.5954,0.47067 -0.69157,2.8e-4 -0.70746,-0.003 -0.77645,-0.18487 -0.0388,-0.10188 -0.0704,-0.50332 -0.0704,-0.89202 0,-0.67066 0.0106,-0.72204 0.21668,-1.00588 0.11918,-0.16451 0.21669,-0.31413 0.21669,-0.33247 0,-0.0183 -0.16301,-0.0141 -0.36224,0.009 -0.43802,0.052 -0.58585,-0.0523 -0.83906,-0.59143 -0.25787,-0.54899 -0.24448,-0.57781 0.40678,-0.87552 0.31781,-0.14527 0.57783,-0.29554 0.57783,-0.33393 0,-0.0383 -0.0812,-0.16638 -0.18056,-0.2844 -0.29572,-0.35143 -0.20007,-0.71932 0.21402,-0.82327 0.26958,-0.0676 1.88892,0.096 2.11705,0.21402 0.11431,0.0591 0.32771,0.24019 0.47425,0.40241 0.21794,0.24122 0.2579,0.33086 0.21934,0.49221 -0.0693,0.28985 -0.0864,0.30541 -0.33839,0.30791 l -0.2305,0.002 0.19864,0.1482 c 0.25214,0.18811 0.25046,0.27006 -0.007,0.35995 -0.16953,0.0591 -0.19984,0.10423 -0.17111,0.25449 0.0283,0.14776 0.066,0.17486 0.19777,0.1418 0.23429,-0.0589 0.33929,0.10998 0.39129,0.62877 l 0.0449,0.44853 0.13324,-0.39727 c 0.18043,-0.53794 0.22231,-0.56867 0.46204,-0.339 0.25635,0.2456 0.31957,0.24621 0.22679,0.002 -0.11407,-0.3 0.0162,-0.35913 0.37899,-0.17212 l 0.31167,0.16062 -0.27915,-0.28882 c -0.28265,-0.29243 -0.29699,-0.44632 -0.0416,-0.44632 0.0772,0 0.1402,-0.0452 0.1402,-0.10059 0,-0.14981 0.16636,-0.18831 0.81373,-0.18831 0.71037,0 1.12612,0.16756 1.30257,0.52493 0.33855,0.68568 0.46312,1.04704 0.39988,1.16006 -0.0778,0.13912 -0.64214,0.48259 -0.78904,0.48029 -0.0562,-7.8e-4 -0.18325,-0.0668 -0.28257,-0.1465 -0.0993,-0.0797 -0.27454,-0.21444 -0.38937,-0.29946 l -0.2088,-0.1546 0.20207,0.3448 c 0.24642,0.4205 0.25883,0.82973 0.0382,1.26209 -0.18636,0.36527 -0.8027,1.02141 -0.94705,1.00818 -0.057,-0.005 -0.37689,-0.0487 -0.71097,-0.0965 z"
         style="fill:#d40000;fill-opacity:1;stroke-width:0.07222897" />
      <path
         inkscape:connector-curvature="0"
         id="path1010"
         d="m -158.26884,134.13996 c -0.0996,-0.009 -0.27782,0.0427 -0.55034,0.13849 -1.4329,0.50362 -2.82059,2.16763 -3.16553,3.79605 -0.21044,0.99344 -0.11657,2.26149 0.24378,3.29957 0.19826,0.57112 0.74975,1.62076 1.09379,2.08187 0.33238,0.44561 0.35492,0.53108 0.11096,0.41994 -0.2262,-0.10306 -0.40213,-0.0347 -0.40213,0.15672 0,0.10323 0.0783,0.18317 0.24946,0.25471 0.13714,0.0573 0.34038,0.22329 0.45152,0.36892 0.57579,0.75432 1.12171,1.21292 1.67328,1.40519 0.19551,0.0682 0.25502,0.0606 0.37215,-0.0453 0.13304,-0.12038 0.15621,-0.11887 0.50781,0.0324 0.54034,0.23244 1.49042,0.42022 2.59657,0.51308 2.13255,0.1791 2.78731,0.32263 2.96184,0.64874 0.11297,0.21114 0.25768,0.17544 0.37013,-0.0911 0.0691,-0.16372 0.0988,-0.56252 0.0988,-1.31813 0,-1.04297 -0.008,-1.10035 -0.20937,-1.5368 -0.34939,-0.75661 -0.80856,-1.06271 -1.75345,-1.1687 -0.2959,-0.0332 -0.55829,-0.0808 -0.58313,-0.10569 -0.0249,-0.0249 0.0243,-0.26406 0.10934,-0.5313 0.38559,-1.21169 0.38852,-2.07566 0.0129,-3.77216 -0.37903,-1.71216 -0.2867,-2.44128 0.40982,-3.2368 0.44194,-0.50473 0.37823,-0.582 -0.37661,-0.45517 -1.08117,0.18167 -1.9605,0.51948 -2.99869,1.1521 -0.53218,0.32428 -1.01843,0.58961 -1.08042,0.58961 -0.062,0 -0.19121,-0.13811 -0.28711,-0.30695 -0.26258,-0.46208 -0.24277,-1.02925 0.0583,-1.66842 0.1997,-0.42391 0.2523,-0.60619 0.0863,-0.62079 z m -1.05086,1.00712 c 0.0236,0 0.0431,0.18707 0.0433,0.41548 4.8e-4,0.49043 0.10795,0.91913 0.29683,1.1849 0.0748,0.10523 0.13581,0.22678 0.13607,0.27051 v 4.1e-4 c -0.001,0.10476 -0.54733,0.0921 -0.8577,-0.0203 -0.54384,-0.19674 -0.62861,-0.60927 -0.25634,-1.2505 0.1531,-0.26373 0.511,-0.60055 0.63781,-0.60055 z m 4.7404,0.30696 c 0.12791,0.0131 0.0819,0.17728 -0.10043,0.54021 -0.13829,0.27529 -0.26698,0.66287 -0.2944,0.88644 -0.0269,0.21848 -0.0662,0.48642 -0.0871,0.59569 v 4e-4 c -0.0495,0.25845 -0.11261,0.25026 -0.45193,-0.0563 -0.28364,-0.25627 -0.51348,-0.64134 -0.51348,-0.86094 0,-0.20405 0.63316,-0.80954 1.02089,-0.97634 0.21033,-0.0905 0.34967,-0.13704 0.42642,-0.12918 z m -1.97659,2.40178 c 0.64538,0 0.91433,0.1593 0.94881,0.56249 0.0384,0.4489 -0.16661,0.71113 -1.62184,2.07377 -0.98739,0.92455 -1.4341,1.78006 -1.58337,3.03351 -0.0544,0.45685 -0.10046,0.85505 -0.10124,0.88483 -0.001,0.0298 -0.031,0.0543 -0.0664,0.0543 -0.0354,0 -0.1318,-0.25176 -0.21423,-0.55964 -0.70006,-2.61536 -0.009,-5.00766 1.68705,-5.83743 0.35682,-0.17468 0.52463,-0.21179 0.95123,-0.21179 z m -2.81848,0.098 c 0.18335,0.007 0.31425,0.0417 0.31425,0.10853 0,0.0541 -0.10033,0.31928 -0.22273,0.58921 -0.29734,0.65577 -0.49296,1.44044 -0.56694,2.27382 -0.0932,1.04948 0.0129,1.92619 0.39969,3.30443 0.0705,0.25109 -0.0664,0.19342 -0.33813,-0.14254 -1.19923,-1.48289 -1.61675,-2.69876 -1.44488,-4.2091 0.10064,-0.88437 0.40898,-1.50601 0.8662,-1.74657 0.23548,-0.12394 0.68695,-0.18947 0.99254,-0.17778 z m 4.8222,1.09378 c 0.0907,0 0.0367,0.67677 -0.0725,0.9067 -0.13349,0.2813 -0.60192,0.60296 -1.31326,0.90183 -0.52403,0.22018 -1.10059,0.3467 -1.09824,0.24095 8.1e-4,-0.0349 0.41469,-0.37218 0.92006,-0.74957 0.50537,-0.37741 1.0545,-0.82411 1.22012,-0.99295 0.16562,-0.16883 0.32038,-0.30696 0.34381,-0.30696 z m 0.0826,1.58905 c 0.14777,0 0.13153,0.40311 -0.0308,0.75848 -0.27894,0.61071 -0.57769,0.79332 -1.88749,1.15493 -0.37739,0.1042 -0.9911,0.33374 -1.36389,0.51024 -0.37279,0.17651 -0.69302,0.32072 -0.71191,0.32072 -0.0597,0 0.0566,-0.38367 0.22961,-0.75807 0.32397,-0.7013 0.75547,-0.99103 1.93285,-1.29666 0.74333,-0.19297 1.62171,-0.51862 1.68785,-0.62566 0.0219,-0.0353 0.0866,-0.064 0.14376,-0.064 z m -0.7192,2.1823 c 0.27072,0.0125 0.21093,0.13769 -0.0976,0.51834 -0.53222,0.65664 -1.37773,1.1681 -2.28354,1.38171 v 4e-4 c -0.24368,0.0575 -0.56912,0.10514 -0.72325,0.10569 l -0.28023,8.1e-4 0.0373,-0.33044 c 0.0245,-0.21705 0.10978,-0.4217 0.24904,-0.59609 0.41231,-0.51629 1.5191,-0.94861 2.71442,-1.06058 0.16672,-0.0156 0.29365,-0.024 0.38389,-0.0198 z m 0.98364,0.60743 c 0.13312,0.006 0.2736,0.0657 0.47136,0.16846 0.51953,0.27007 0.66858,0.38729 0.66858,0.52482 0,0.0846 -0.13224,0.11648 -0.60297,0.14579 -0.54407,0.0339 -0.68842,0.0779 -1.48376,0.45152 -0.86422,0.40589 -0.89595,0.41451 -1.65424,0.45071 -0.87422,0.0417 -0.91377,-0.0248 -0.15267,-0.25714 0.79297,-0.24204 1.37525,-0.54648 1.91625,-1.00267 0.4139,-0.34902 0.61558,-0.491 0.83745,-0.48149 z m 0.17494,1.69797 c 0.22254,0.005 0.38958,0.0627 0.58111,0.17495 0.36417,0.21344 0.3484,0.32112 -0.0478,0.32112 -0.15334,0 -0.61468,0.0792 -1.02494,0.17616 h -4e-4 c -1.24651,0.29421 -1.99036,0.29475 -2.89381,0.002 -0.76042,-0.2467 -0.63813,-0.29701 0.84798,-0.35069 0.64592,-0.0234 1.23291,-0.0893 1.62508,-0.18264 0.41247,-0.0982 0.69023,-0.1457 0.91277,-0.14052 z m 1.54288,0.11258 0.15185,0.13728 c 0.23635,0.2139 0.35393,0.49815 0.35393,0.85648 0,0.40338 -0.14969,0.44222 -0.36203,0.094 -0.0999,-0.16383 -0.14314,-0.3636 -0.14335,-0.66129 z"
         style="fill:#d40000;fill-opacity:1;stroke-width:0.07222897" />
      <path
         inkscape:connector-curvature="0"
         id="path986"
         d="m -161.94932,143.50596 c -0.30343,-0.11126 -0.67021,-0.15778 -1.55293,-0.19699 -1.25901,-0.0559 -1.56565,-0.13474 -1.82971,-0.47044 -0.50416,-0.64093 0.28971,-1.51715 0.81209,-0.89632 0.22321,0.26525 0.26201,0.6694 0.0606,0.63102 -0.0695,-0.0132 -0.13647,-0.0945 -0.14879,-0.18063 -0.0353,-0.24683 -0.20137,-0.3479 -0.41312,-0.25142 -0.20437,0.0931 -0.24939,0.4412 -0.0757,0.58534 0.12827,0.10646 0.75093,0.1974 1.92882,0.28173 0.73425,0.0525 0.99115,0.10154 1.31817,0.25127 0.37643,0.17233 0.48558,0.28428 0.35202,0.361 -0.0298,0.0171 -0.23294,-0.0345 -0.45144,-0.11454 z"
         style="fill:#d40000;fill-opacity:1;stroke-width:0.07222897" />
    </g>
  </g>
</svg>
